<?xml version="1.0" encoding="UTF-8" standalone="no"?>
<!-- Created with Inkscape (http://www.inkscape.org/) -->

<svg
   xmlns:dc="http://purl.org/dc/elements/1.1/"
   xmlns:cc="http://creativecommons.org/ns#"
   xmlns:rdf="http://www.w3.org/1999/02/22-rdf-syntax-ns#"
   xmlns:svg="http://www.w3.org/2000/svg"
   xmlns="http://www.w3.org/2000/svg"
   version="1.1"
   width="281.29617"
   height="281.29617"
   id="svg3703">
  <defs
     id="defs3705" />
  <metadata
     id="metadata3708">
    <rdf:RDF>
      <cc:Work
         rdf:about="">
        <dc:format>image/svg+xml</dc:format>
        <dc:type
           rdf:resource="http://purl.org/dc/dcmitype/StillImage" />
        <dc:title></dc:title>
      </cc:Work>
    </rdf:RDF>
  </metadata>
  <g
     transform="translate(-159.35113,-311.71139)"
     id="layer1">
    <g
       transform="translate(-683.45684,-840.21835)"
       id="g3842">
      <path
         d="m 990.44742,1396.5593 c -0.2851,-0.3151 -0.5228,-1.0552 -0.528,-1.6447 -0.01,-0.88 -0.067,-0.9737 -0.3288,-0.5236 -0.4895,0.8403 -1.2654,0.6559 -2.6128,-0.6209 -1.3866,-1.314 -8.3704,-6.0975 -8.5866,-5.8814 -0.1294,0.1295 0.5992,1.1871 2.8441,4.1282 1.5949,2.0896 0.8529,3.0503 -1.5387,1.9924 -1.5229,-0.6736 -4.4094,-1.3201 -8.5349,-1.9116 -2.8901,-0.4144 -7.2778,-0.2298 -8.9552,0.3767 -0.8492,0.3071 -1.1556,0.3023 -1.5491,-0.024 -2.7282,-2.2642 5.1279,-3.6184 12.8493,-2.2149 4.3426,0.7894 4.4347,0.7914 3.8439,0.083 -0.6427,-0.7703 -3.8382,-6.2084 -4.6748,-7.9555 -0.7261,-1.5164 -0.6573,-2.4612 0.1793,-2.4612 0.2694,0 1.5779,1.1023 2.9078,2.4496 2.7033,2.7386 4.1409,3.8045 4.1409,3.0699 0,-0.8014 -0.9572,-8.7336 -1.4221,-11.7852 -0.5229,-3.4322 -1.5603,-7.807 -1.9417,-8.1884 -0.3357,-0.3357 -3.0128,1.0829 -4.603,2.4391 -1.3012,1.1097 -2.0056,1.2907 -2.6222,0.6741 -0.5826,-0.5827 -0.4628,-1.2442 0.7356,-4.0607 l 1.1115,-2.6123 -1.0332,1.2192 c -0.5683,0.6705 -1.3278,1.7279 -1.6879,2.3496 -0.4625,0.7986 -0.8737,1.1305 -1.4005,1.1305 -1.2001,0 -1.6104,-1.1706 -1.4003,-3.9944 0.1688,-2.2694 0.1402,-2.428 -0.4377,-2.428 -0.3401,0 -0.7476,-0.231 -0.9056,-0.5134 -0.1872,-0.3344 -0.2745,0.6182 -0.2506,2.7329 0.033,2.9112 -0.022,3.2581 -0.5362,3.3607 -1.0577,0.2112 -2.108,-0.2643 -2.4838,-1.1245 -0.9352,-2.1413 -3.4342,-5.981 -4.6328,-7.1186 -1.0461,-0.9928 -1.2071,-1.0746 -0.7754,-0.394 1.1763,1.854 -0.1972,2.3563 -2.4817,0.9075 -0.7773,-0.4929 -2.0655,-0.9856 -2.8627,-1.0949 -2.6765,-0.3669 -8.1353,1.48 -11.8156,3.9976 -1.3385,0.9156 -2.6528,1.0587 -2.9364,0.3197 -0.5086,-1.3254 0.5288,-2.905 4.4973,-6.8477 2.1793,-2.165 3.8918,-4.007 3.8056,-4.0931 -0.086,-0.086 -1.4441,0.7002 -3.0176,1.7474 -2.8866,1.921 -3.8346,2.1532 -4.2604,1.0434 -0.1001,-0.2608 0.2413,-1.3127 0.7587,-2.3377 0.8949,-1.7728 0.873,-2.4553 -0.043,-1.351 -0.2339,0.2819 -0.9634,0.8522 -1.621,1.2673 -0.6576,0.4152 -2.7102,2.2773 -4.5612,4.1382 -2.5532,2.5666 -3.6563,3.9434 -4.5699,5.7033 -1.4369,2.7681 -1.9584,3.4163 -2.7483,3.4163 -1.3986,0 -1.8703,-3.9033 -0.8318,-6.8824 0.1795,-0.515 0.27,-1.1055 0.2011,-1.3122 -0.069,-0.2067 -0.7477,1.5056 -1.5085,3.805 -2.423,7.3237 -2.5513,7.2909 -6.7246,-1.7194 -1.1665,-2.5186 -3.4598,-6.4224 -3.7729,-6.4224 -0.036,0 0.2819,0.9516 0.7068,2.1147 1.2793,3.5022 2.2842,7.2286 2.0874,7.7413 -0.308,0.8027 -1.5229,0.5477 -2.4736,-0.5194 -0.8865,-0.9949 -1.4124,-0.8113 -0.8242,0.2878 0.1689,0.3156 0.4715,1.48 0.6723,2.5876 0.3273,1.8047 0.3089,2.0549 -0.1767,2.41 -0.7528,0.5505 -1.9602,-0.1992 -3.0409,-1.8881 -0.4572,-0.7144 -1.3298,-1.8532 -1.9391,-2.5307 -0.6094,-0.6774 -1.1079,-1.3471 -1.1079,-1.4881 0,-0.141 -0.1505,-0.2564 -0.3344,-0.2564 -0.1856,0 -0.2506,0.2641 -0.146,0.5936 0.1931,0.6083 -0.5252,1.5994 -1.1592,1.5994 -0.1879,0 -1.6228,-0.7462 -3.1888,-1.6583 -3.4002,-1.9805 -6.0394,-3.1453 -6.621,-2.9221 -0.2798,0.1074 -0.3614,0 -0.2404,-0.3148 0.1305,-0.3399 0.4189,-0.4182 1.0022,-0.2721 1.1214,0.2809 5.5001,2.5106 7.1224,3.6268 2.0096,1.3826 2.9508,1.1565 2.2808,-0.5478 -0.1919,-0.4884 -0.4697,-1.3108 -0.6171,-1.8277 -0.2424,-0.8493 -0.1048,-0.7666 1.427,0.8587 0.9323,0.9891 2.5605,2.9353 3.6182,4.3247 1.0577,1.3894 2.0871,2.469 2.2876,2.3991 0.4998,-0.1744 0.2918,-2.4043 -0.4428,-4.7471 -0.7162,-2.2841 -0.7216,-2.3655 -0.1569,-2.3655 0.245,0 1.0158,0.6672 1.7128,1.4826 2.3331,2.7295 2.3261,1.1093 -0.025,-5.712 -0.3562,-1.0338 -0.9916,-2.5633 -1.4118,-3.3989 -0.892,-1.7736 -0.7402,-2.1872 0.4106,-1.1188 1.8052,1.6758 4.2601,5.9188 6.3817,11.0302 1.1727,2.8252 1.7421,3.5507 2.3746,3.0258 0.2331,-0.1935 0.9314,-1.9253 1.5517,-3.8485 0.6204,-1.9232 1.4679,-4.2722 1.8834,-5.2198 0.4156,-0.9477 1.1023,-2.6395 1.5261,-3.7595 1.1135,-2.9429 1.0597,-1.1445 -0.1032,3.4462 -1.1385,4.4942 -1.4027,6.2731 -1.14,7.6734 0.3571,1.904 1.2103,1.4614 2.699,-1.4001 0.8913,-1.7131 2.1505,-3.4021 4.0057,-5.3729 3.7377,-3.9705 9.1054,-8.2423 9.66,-7.6876 0.083,0.083 -0.4076,1.1861 -1.0907,2.451 -1.1439,2.1182 -1.3564,3.083 -0.6792,3.083 0.1469,0 1.4144,-0.7678 2.8165,-1.7063 2.5342,-1.6963 4.3693,-2.5276 5.0664,-2.2952 0.2005,0.067 -1.7489,2.2281 -4.3321,4.8028 -4.8036,4.7878 -5.8558,6.2929 -4.9341,7.0579 0.3688,0.3061 0.7103,0.1972 1.7784,-0.5669 2.2276,-1.5937 5.7437,-3.2001 8.3848,-3.831 3.0994,-0.7402 4.9697,-0.5163 7.1841,0.8603 2.5018,1.5552 2.3061,0.4747 -0.5235,-2.8899 -2.2094,-2.6271 -0.7814,-2.0499 2.435,0.9843 1.9862,1.8737 4.6433,5.6161 5.9587,8.3924 0.4688,0.9896 1.7491,1.452 2.1636,0.7814 0.2752,-0.4453 0.1088,-2.4057 -0.494,-5.8184 -0.5178,-2.9315 -0.5957,-7.0245 -0.1337,-7.0245 0.1723,0 0.3138,0.1057 0.3145,0.235 0.01,0.8984 1.0129,6.2107 1.2696,6.6903 0.3983,0.7441 1.1037,0.7678 1.347,0.045 0.5107,-1.5167 2.6618,-4.4643 3.258,-4.4643 0.6184,0 0.263,0.9802 -1.3486,3.7198 -1.4424,2.4518 -1.9625,4.6918 -1.5724,6.7713 0.2424,1.2924 1.2475,1.5498 1.5448,0.3956 0.2458,-0.9547 2.8112,-4.0245 3.793,-4.539 0.436,-0.2284 0.7927,-0.3438 0.7927,-0.2565 0,0.087 -0.4182,1.0719 -0.9293,2.1878 -1.4201,3.1005 -1.8903,4.2872 -1.8903,4.7705 0,0.9187 0.9479,0.7433 2.4653,-0.4562 0.8636,-0.6826 2.2335,-1.5622 3.0444,-1.9548 1.4043,-0.6798 1.4937,-0.6871 1.8836,-0.1538 0.8679,1.1868 2.2692,8.4329 3.0919,15.9879 0.2627,2.4123 0.5598,4.7737 0.6603,5.2476 0.1204,0.5684 0.053,0.8615 -0.1992,0.8615 -0.4741,0 -4.0248,-3.0689 -5.9809,-5.1692 -2.5657,-2.7549 -2.3429,-1.3196 0.5714,3.6811 1.3822,2.3716 1.884,2.984 1.5404,1.8797 -0.2465,-0.7922 0.3136,-1.5699 0.8462,-1.1748 0.2323,0.1723 2.0858,1.4158 4.1187,2.7634 2.033,1.3475 4.3814,3.0908 5.2186,3.874 2.0326,1.9012 2.4746,1.7112 2.4817,-1.0668 0,-1.1684 0.2081,-3.0808 0.4557,-4.2495 0.5226,-2.4661 2.9917,-8.4245 3.571,-8.6176 0.5885,-0.1961 0.1701,1.6774 -1.2796,5.7301 -1.3231,3.6988 -1.8744,7.2947 -1.5364,10.0215 0.1332,1.0754 0.3492,1.5926 0.6923,1.6582 0.3759,0.072 0.6768,-0.5055 1.2226,-2.3461 0.9119,-3.0751 2.906,-6.9749 4.7897,-9.3671 1.44,-1.8287 2.6314,-2.8335 2.96458,-2.5002 0.095,0.095 -0.25958,1.2678 -0.78788,2.6063 -0.9784,2.4787 -2.3595,7.1277 -2.7463,9.2443 -0.3012,1.6482 0.3057,1.7558 2.551,0.4525 2.12828,-1.2354 6.58488,-2.2496 8.86788,-2.0181 1.4652,0.1486 2.9805,0.72 4.452,1.6788 1.3579,0.8848 1.8408,0.4281 1.8408,-1.7411 0,-2.4913 2.1153,-9.2809 2.7071,-8.6891 0.061,0.061 -0.1088,1.3944 -0.3781,2.9622 -0.5709,3.3237 -0.5104,5.2434 0.1653,5.2434 0.2518,0 0.6748,-0.4211 0.9398,-0.9358 0.2651,-0.5147 1.2364,-2.1088 2.1584,-3.5425 2.4407,-3.7951 7.7759,-8.3964 12.9592,-11.1766 0.8128,-0.4359 1.647,-0.7926 1.8538,-0.7926 0.2068,0 -1.2387,1.5861 -3.2123,3.5245 -3.1342,3.0783 -6.5415,7.4286 -6.5415,8.3518 0,0.7732 0.7486,0.5833 2.2905,-0.5809 3.1043,-2.3437 7.7285,-4.261 10.7108,-4.4409 2.5877,-0.1561 2.7001,0.3583 0.3241,1.4832 -2.6515,1.2555 -5.486,4.6396 -4.6153,5.5103 0.2707,0.2707 1.1558,0.1167 3.5786,-0.6227 5.1154,-1.5612 10.3821,-2.0615 13.6855,-1.3 1.4301,0.3297 2.2686,0.027 1.5299,-0.5524 -1.9414,-1.5221 -9.4962,-1.3132 -14.7391,0.4077 -1.9037,0.6248 -2.3273,0.4808 -1.5379,-0.5227 0.7197,-0.915 3.1487,-2.2995 5.466,-3.1156 0.8888,-0.3129 1.664,-0.7132 1.7228,-0.8895 0.059,-0.1763 -0.2704,-0.5677 -0.7315,-0.8698 -1.3365,-0.8757 -6.6059,-0.7842 -9.0691,0.1576 -2.4455,0.935 -2.8002,0.9549 -2.9133,0.1639 -0.071,-0.4936 0.8867,-1.5778 3.8376,-4.3464 3.8155,-3.5797 4.4104,-4.387 3.4923,-4.7393 -0.5167,-0.1983 -4.6926,1.4817 -6.8919,2.7726 -1.2604,0.74 -1.6057,0.8277 -1.9281,0.49 -0.2159,-0.2263 -0.9751,-2.5261 -1.6871,-5.1107 -0.712,-2.5846 -1.3755,-4.9652 -1.4744,-5.2902 -0.1527,-0.5018 -0.06,-0.5608 0.6167,-0.391 0.8906,0.2235 0.9663,0.085 1.302,-2.3859 0.3108,-2.2877 0.7903,-1.765 0.7903,0.8615 0,2.0534 0.071,2.3497 0.5637,2.3497 0.3575,0 0.7056,-0.3927 0.9519,-1.0738 0.8825,-2.4405 5.5954,-7.8972 6.2529,-7.2397 0.1147,0.1147 -0.058,0.6576 -0.3837,1.2065 -0.3256,0.5488 -1.2009,2.1962 -1.9449,3.6608 -2.1596,4.2511 -1.8248,4.8158 1.5221,2.5673 2.2444,-1.5078 5.1039,-2.8543 4.8937,-2.3044 -0.059,0.1547 -1.2001,1.1571 -2.5354,2.2276 -1.3354,1.0705 -2.428,2.1464 -2.428,2.3909 0,0.4791 1.1082,0.6192 1.3828,0.1748 0.2338,-0.3782 4.0177,-2.1599 6.4493,-3.0367 2.4732,-0.8918 7.6814,-2.0763 8.5854,-1.9527 0.4147,0.057 0.6565,-0.083 0.6565,-0.3801 0,-0.7549 -3.3311,-0.5259 -6.579,0.4523 -1.5507,0.467 -3.2425,0.9741 -3.7594,1.1268 l -0.9398,0.2777 0.9398,-0.7787 c 0.5169,-0.4282 1.68,-1.1445 2.5846,-1.5917 1.6807,-0.8308 1.999,-1.2498 1.1865,-1.5616 -1.0458,-0.4013 -7.1081,1.6196 -9.6252,3.2086 -0.6897,0.4353 -1.3453,0.7003 -1.4569,0.5887 -0.2975,-0.2976 2.0871,-4.6908 3.6299,-6.6875 1.4553,-1.8833 1.5589,-2.1725 0.8726,-2.4359 -0.4791,-0.1838 -4.0864,1.7074 -3.801,1.9928 0.09,0.09 0.8818,-0.2978 1.76,-0.8613 0.9272,-0.595 1.711,-0.9074 1.8695,-0.7451 0.1568,0.1604 -0.2898,1.0208 -1.0487,2.0209 -0.7269,0.9579 -1.9233,2.8979 -2.6586,4.3112 -1.3244,2.5457 -1.3304,2.572 -0.6463,2.8251 0.6781,0.2508 0.6733,0.2677 -0.2656,0.9363 -1.0347,0.7367 -1.6427,0.8695 -1.6427,0.3586 0,-0.4203 1.627,-3.6541 3.2029,-6.3659 1.4573,-2.5077 1.2712,-3.1339 -0.5633,-1.8954 -1.0067,0.6797 -1.1215,0.7095 -0.633,0.1643 1.1265,-1.2571 0,-0.6661 -1.3446,0.7077 -0.8053,0.8205 -1.1937,1.4253 -0.9644,1.5017 0.2482,0.083 0.08,0.4551 -0.4758,1.0542 l -0.8597,0.9263 0.5307,-0.8887 c 0.8295,-1.3891 0.3564,-1.3074 -0.5745,0.099 -0.4584,0.6927 -0.9638,1.2595 -1.1231,1.2595 -0.1593,0 -0.3737,-0.6696 -0.4765,-1.4881 -0.3403,-2.7112 -0.8711,-5.0801 -1.2562,-5.6068 -0.5831,-0.7974 -1.1009,-0.2181 -1.1079,1.2393 -0.01,1.8786 -0.5352,5.2693 -0.8696,5.6037 -0.17,0.1699 -0.5188,-0.069 -0.8681,-0.5935 -0.5179,-0.7782 -0.5879,-1.5876 -0.6182,-7.1434 -0.029,-5.4014 -0.7081,-6.9571 -1.4757,-11.2782 -0.7627,-4.2941 -1.4387,-5.7985 -1.4219,-10.4951 0.027,-7.6592 1.3997,-11.5443 4.5089,-18.7261 2.2413,-5.1773 3.1741,-8.8768 5.0734,-20.1213 1.0791,-6.3888 0.3196,-11.3993 -3.158,-20.8335 -3.4745,-9.4257 -3.8835,-12.6737 -2.6631,-21.1467 0.766,-5.3186 2.7126,-15.9675 2.9649,-16.2198 0.1044,-0.1044 0.8562,0.043 1.6707,0.3281 2.217,0.7752 7.9496,2.0245 14.0937,3.2654 4.5468,0.9183 6.2043,1.113 9.7118,1.1411 4.1786,0.033 4.2567,0.021 6.5056,-1.0248 4.0305,-1.8745 5.9982,-4.9568 6.2701,-9.8221 0.1129,-2.0197 -0.01,-2.9074 -0.7077,-5.1692 -1.0129,-3.2774 -3.4174,-7.9364 -5.3948,-10.4534 -2.9257,-3.7239 -10.1159,-8.9887 -14.8186,-10.8504 -3.5548,-1.4073 -7.0542,-1.9878 -11.5511,-1.9159 l -4.1889,0.067 -2.0768,-2.3329 c -5.4281,-6.0973 -10.3203,-9.3471 -17.8201,-11.8377 -6.3696,-2.1153 -16.85498,-2.1687 -26.39358,-0.1346 -5.159,1.1002 -14.3457,5.0295 -16.9294,7.241 l -1.2129,1.0383 -2.7554,-0.2066 c -7.1135,-0.5332 -19.5209,2.1515 -25.7246,5.5663 -6.1603,3.3908 -10.4356,8.8088 -10.0001,12.6726 0.2254,1.9997 1.6581,4.1067 3.8428,5.6514 3.343,2.3636 11.0355,4.4369 19.0314,5.1293 2.1062,0.1823 5.0892,0.3829 5.2817,0.4456 0.2177,0.071 0.4342,1.6361 0.5727,4.1406 0.1979,3.5792 0.1524,4.2349 -0.41,5.8999 -1.0915,3.2315 -1.3804,4.6085 -1.5759,7.5124 -0.174,2.5841 -0.2422,2.8129 -0.8165,2.7397 -2.7254,-0.3473 -12.2777,-0.4152 -15.0351,-0.1119 -4.4489,0.4894 -10.524,1.7487 -13.0905,2.7135 -6.6876,2.514 -14.5351,7.3201 -18.8161,11.5235 -2.2091,2.1691 -6.0093,7.1789 -6.0093,7.922 0,0.1247 -0.186,0.4493 -0.4133,0.7213 -0.9434,1.1289 -2.8428,6.02 -3.4155,8.7952 -1.1229,5.4417 -0.374,10.1505 1.9718,12.398 0.8075,0.7736 0.9171,1.0958 0.9171,2.6948 0,2.079 1.1608,7.8707 2.4067,12.0078 1.0366,3.4424 1.1405,6.6369 0.2699,8.3021 -0.3153,0.6031 -1.6648,2.2243 -2.9991,3.6028 -3.342,3.4528 -5.0031,6.1747 -5.4949,9.0042 -0.112,0.6446 -0.3076,1.1078 -0.4346,1.0293 -0.2804,-0.1733 0.077,-2.4889 0.5743,-3.7212 0.6207,-1.5379 2.4401,-4.0343 4.6008,-6.3123 3.003,-3.1663 3.6119,-4.1814 3.7926,-6.3232 0.1165,-1.3816 -0.042,-2.4882 -0.6567,-4.5763 -1.3026,-4.4263 -2.6855,-11.0453 -2.6855,-12.8533 0,-1.3583 -0.1406,-1.8028 -0.7516,-2.3769 -0.4134,-0.3883 -1.1536,-1.576 -1.6448,-2.6392 -0.8246,-1.7849 -0.8913,-2.2093 -0.8697,-5.5359 0.028,-4.2989 0.5529,-6.6745 2.3667,-10.7085 2.1003,-4.6712 4.9455,-8.7884 8.3715,-12.114 1.6595,-1.6108 3.4171,-3.1356 3.9059,-3.3884 0.4888,-0.2527 1.5146,-0.9374 2.2797,-1.5214 1.9023,-1.452 7.5178,-4.4321 10.9352,-5.8031 2.9791,-1.1951 6.7187,-2.1984 11.1216,-2.9837 3.3444,-0.5965 12.2191,-0.9037 15.4293,-0.5341 l 3.5303,0.2795 0,-1.6429 c 0,-1.9427 0.6985,-5.4799 1.6009,-8.1063 0.5748,-1.6731 0.6215,-2.3014 0.4246,-5.7174 -0.2094,-3.634 -0.2566,-3.8382 -0.8884,-3.8458 -6.5591,-0.08 -19.3984,-2.7774 -22.9187,-5.0148 -2.9675,-1.886 -5.0101,-4.8443 -5.0101,-7.256 0,-1.4205 1.5088,-4.7605 2.8222,-6.2474 0.5121,-0.5797 1.0125,-1.3008 1.1119,-1.6023 0.099,-0.3016 0.2892,-0.5483 0.4216,-0.5483 0.1325,0 1.1123,-0.6993 2.1773,-1.5541 2.7797,-2.2308 5.4781,-3.6477 9.6547,-5.0693 6.6746,-2.272 15.1735,-3.6587 20.1057,-3.2806 2.6099,0.2001 2.6182,0.1984 4.0727,-0.8631 3.0863,-2.2522 10.2564,-5.4408 15.2349,-6.775 4.9784,-1.3341 8.5089,-1.7258 15.3581,-1.704 7.00628,0.022 9.29288,0.2943 13.21078,1.5717 5.0908,1.6598 11.4782,5.3493 14.2253,8.2168 0.4438,0.4633 1.0782,1.0794 1.4098,1.3693 0.65,0.5683 2.6511,2.8473 3.3773,3.8464 0.409,0.5628 0.7826,0.6074 4.4751,0.5336 4.3535,-0.087 8.2665,0.5462 11.7043,1.8941 1.9927,0.7813 8.3019,4.4545 9.2771,5.4012 0.3639,0.3533 1.4132,1.2768 2.3317,2.0521 2.3552,1.9881 2.6462,2.3066 4.8669,5.3259 1.3085,1.7791 3.4381,6.2268 4.3204,9.0231 1.3314,4.2198 0.9268,8.1826 -1.2073,11.8241 -1.416,2.4162 -4.8652,4.3633 -8.6614,4.8894 -3.9351,0.5453 -11.886,-0.6492 -22.2057,-3.336 -2.3261,-0.6057 -4.9849,-1.1355 -5.2347,-1.1775 -0.8845,-0.1487 -4.3228,17.281 -4.325,22.7833 0,4.1691 1.9867,9.6319 5.1284,17.3975 1.944,4.8052 2.7348,11.8128 1.8915,16.7608 -1.5161,8.8952 -1.8279,10.5452 -2.3842,12.6138 -0.7637,2.84 -2.0392,6.423 -3.8772,10.8914 -2.059,5.0058 -3.3353,9.0274 -3.3739,15.6555 -0.027,4.5417 0.654,6.1099 1.43,10.6517 0.7836,4.5867 1.4639,6.1809 1.4821,11.4871 0.019,5.5294 0.1612,6.961 0.6439,6.4783 0.084,-0.084 0.2603,-1.5377 0.3916,-3.2303 0.1875,-2.4176 0.3563,-3.1514 0.787,-3.4222 0.3951,-0.2484 0.7014,-0.2498 1.0965,-0.01 0.6122,0.3797 1.5903,3.7119 1.6234,5.5309 0.012,0.6462 0.1623,1.1749 0.3346,1.1749 0.1723,0 0.3148,-0.1058 0.3167,-0.235 0.01,-0.6429 3.8612,-4.2197 5.7726,-5.3604 2.3939,-1.4286 2.6178,-1.4859 3.4444,-0.8815 0.7345,0.5371 0.4546,1.4644 -0.9017,2.987 -1.7839,2.0026 -4.0772,6.6418 -2.5073,5.072 0.4789,-0.4788 5.4607,-2.3753 7.4556,-2.8382 1.296,-0.3008 1.9834,-0.3298 2.3496,-0.099 0.8957,0.564 0.7758,1.3018 -0.3226,1.9866 l -1.0395,0.6482 0.9398,-0.2157 c 0.517,-0.1187 1.244,-0.3276 1.6156,-0.4643 0.3716,-0.1367 1.5142,-0.3434 2.5392,-0.4594 2.2107,-0.2501 3.2968,0.1682 3.1481,1.2125 -0.083,0.5803 -0.358,0.712 -1.8204,0.8709 -3.7812,0.4109 -8.6993,1.9548 -12.8937,4.0478 -2.6082,1.3015 -3.7104,1.3963 -3.7104,0.319 0,-0.3152 0.5082,-1.0193 1.1294,-1.5647 0.6212,-0.5453 1.0609,-1.0601 0.9772,-1.1438 -0.084,-0.084 -0.3453,0.031 -0.5812,0.2548 -0.2359,0.2239 -1.0532,0.8132 -1.8163,1.3095 -1.028,0.6687 -1.5149,0.8225 -1.8797,0.594 -0.8865,-0.5553 -0.7071,-1.5497 0.858,-4.7576 0.8486,-1.7393 1.4966,-3.1623 1.44,-3.1623 -0.4861,0 -2.6653,2.995 -4.0635,5.5845 -1.0508,1.9462 -1.9642,2.4053 -2.6988,1.3566 -0.3617,-0.5165 -0.5158,-0.5505 -0.9747,-0.2149 -0.5114,0.374 -0.475,0.6581 0.5883,4.59 1.4296,5.2863 1.4301,5.288 1.5816,5.288 0.07,0 0.6641,-0.3395 1.3214,-0.7545 1.1951,-0.7544 6.3772,-3.005 6.9192,-3.005 0.4337,0 1.2718,0.9276 1.2718,1.4076 0,0.3949 -1.7756,2.2261 -5.9933,6.1805 -0.9701,0.9096 -1.7807,1.8052 -1.8013,1.9902 -0.021,0.1907 0.9465,-0.01 2.2338,-0.4608 3.7469,-1.315 9.4146,-0.9854 10.2614,0.5968 0.5058,0.9451 0.039,1.5072 -1.6742,2.0163 -1.6839,0.5004 -5.9659,2.8651 -4.5928,2.5364 5.1318,-1.2285 6.906,-1.4694 9.8685,-1.3398 1.7231,0.075 3.6967,0.335 4.386,0.5769 1.0852,0.3809 1.2531,0.5656 1.2531,1.3784 0,0.8504 -0.088,0.9315 -0.9398,0.8642 -7.1167,-0.5618 -10.9469,-0.2261 -15.2887,1.3401 -2.5963,0.9365 -3.2286,0.9595 -3.6708,0.1333 -0.7061,-1.3195 1.5802,-4.5138 4.2304,-5.9104 l 1.2485,-0.658 -0.9352,0 c -2.3708,0.01 -6.921,1.916 -10.3588,4.3404 -1.9451,1.3717 -2.9512,1.4834 -2.9512,0.3278 0,-1.1404 5.2715,-8.4163 6.416,-8.8554 0.2619,-0.1006 0.4763,-0.3311 0.4763,-0.5123 0,-0.4601 -2.1522,0.6879 -3.3099,1.7656 -0.5281,0.4916 -1.5854,1.3848 -2.3496,1.9848 -2.6401,2.073 -4.5288,4.305 -6.2575,7.3951 -1.7918,3.2028 -2.5537,3.8348 -3.335,2.7664 -0.2267,-0.3101 -0.4263,-1.2066 -0.4435,-1.9921 -0.047,-2.1446 -0.5241,-0.4005 -0.5641,2.0616 -0.022,1.331 -0.2001,2.1298 -0.5795,2.5939 l -0.5482,0.6707 -1.2532,-0.6707 c -0.6892,-0.3689 -1.6666,-0.8897 -2.1719,-1.1574 -2.3087,-1.2229 -8.1028,-0.5072 -11.21908,1.3858 -1.9165,1.1642 -2.8696,1.1925 -3.2178,0.095 -0.289,-0.9106 1.6124,-7.8085 3.1263,-11.3417 0.4162,-0.9712 -0.2735,-0.5472 -1.3052,0.8024 -2.3017,3.0108 -4.079,6.8338 -5.5986,12.0423 -0.1691,0.5797 -1.2145,0.4749 -1.8084,-0.1813 z m -9.0696,-3.0659 c 0.057,-0.1706 -0.5479,-1.1486 -1.344,-2.1734 -0.7961,-1.0248 -1.7988,-2.4624 -2.2283,-3.1947 -0.4294,-0.7323 -0.8262,-1.3315 -0.8817,-1.3315 -0.4131,0 0.2285,2.3093 0.9405,3.3853 0.4829,0.7297 0.817,1.3878 0.7424,1.4624 -0.075,0.075 -2.0337,-0.2209 -4.3535,-0.6567 -3.4497,-0.6481 -4.8455,-0.765 -7.664,-0.6419 -3.881,0.1695 -5.7958,0.6182 -5.7958,1.3581 0,0.3762 0.2025,0.4446 0.8615,0.2913 3.1963,-0.7437 5.5788,-0.8972 8.676,-0.559 4.2692,0.4661 7.8762,1.2272 9.2471,1.9511 1.1522,0.6085 1.6238,0.637 1.7998,0.109 z m -1.9319,-0.543 c -0.3356,-0.2454 -0.4795,-0.5811 -0.3435,-0.8013 0.1319,-0.2134 -0.099,-0.884 -0.5284,-1.5356 -1.8044,-2.7371 -1.9149,-3.5094 -0.1318,-0.9218 0.6233,0.9046 1.5072,2.103 1.9642,2.6629 0.7589,0.9301 0.7783,1.0182 0.224,1.0182 -0.3338,0 -0.8668,-0.19 -1.1845,-0.4224 z m -17.8693,-1.4573 c 0.1065,-0.1723 0.432,-0.3111 0.7234,-0.3085 0.4565,0 0.4648,0.047 0.06,0.3085 -0.6135,0.3965 -1.0283,0.3965 -0.7832,0 z m 2.5063,-0.6266 c 0.1065,-0.1722 0.573,-0.3111 1.0367,-0.3084 0.6594,0 0.7406,0.071 0.3731,0.3084 -0.619,0.4001 -1.657,0.4001 -1.4098,0 z m 5.3258,0 c -0.5281,-0.2269 -0.4695,-0.2727 0.3732,-0.2912 0.5498,-0.012 1.0868,0.119 1.1933,0.2912 0.2322,0.3758 -0.6921,0.3758 -1.5665,0 z m 22.3903,-7.0489 c 0,-0.1723 -0.1366,-0.1018 -0.3036,0.1567 -0.1671,0.2584 -0.3037,0.6109 -0.3037,0.7832 0,0.1723 0.1366,0.1018 0.3037,-0.1566 0.167,-0.2585 0.3036,-0.611 0.3036,-0.7833 z m 40.46338,-6.344 c 0.3897,-0.4969 0.3786,-0.508 -0.1183,-0.1183 -0.3015,0.2365 -0.5482,0.4832 -0.5482,0.5483 0,0.2578 0.2572,0.092 0.6665,-0.43 z m -41.22018,18.3272 c -0.2633,-0.8579 -0.4519,-3.2982 -0.269,-3.4811 0.107,-0.107 0.3651,-0.053 0.5734,0.1199 0.4824,0.4003 0.8124,-0.021 1.5212,-1.9403 0.7436,-2.0139 3.4946,-6.4961 4.6331,-7.5489 1.2014,-1.1109 4.51058,-3.3621 4.94228,-3.3621 0.4841,0 0.4577,0.08 -1.0682,3.2255 -1.54378,3.1831 -3.71998,10.2398 -3.29388,10.6813 0.1562,0.1619 0.9675,0 1.93258,-0.3837 2.2981,-0.9154 4.1796,-1.2958 6.2061,-1.2547 0.9477,0.019 1.3706,0.091 0.9398,0.1606 -4.3208,0.693 -6.3154,1.2365 -8.04098,2.1912 -1.1321,0.6263 -2.0114,0.9401 -2.1239,0.7581 -0.299,-0.4839 1.304,-6.4151 2.7013,-9.9946 0.69378,-1.7774 1.18728,-3.3058 1.09658,-3.3964 -0.091,-0.091 -0.4221,-0.077 -0.7366,0.029 -2.23038,0.7568 -6.42168,7.3272 -7.95638,12.4729 -0.633,2.1221 -0.8342,2.4501 -1.0574,1.723 z m 21.61928,-1.9052 c -0.5567,-0.407 -0.551,-0.4336 0.1311,-0.6119 0.8225,-0.2151 0.8679,0.11 -0.7641,-5.4709 -0.6172,-2.1103 -1.6152,-4.9584 -2.2179,-6.3293 -1.5232,-3.4643 -2.2959,-6.1135 -2.6713,-9.1584 -0.6756,-5.48 -2.3896,-11.9774 -5.7285,-21.7157 -2.62248,-7.6486 -4.66158,-17.647 -4.35968,-21.3772 0.1978,-2.4451 0.8071,-2.2717 0.6594,0.1877 -0.099,1.6415 -0.055,1.773 0.6154,1.8681 1.5579,0.2208 4.23668,-0.9695 6.19648,-2.7537 1.048,-0.954 2.5971,-2.2293 3.4424,-2.8339 0.9597,-0.6864 2.1266,-1.9958 3.1071,-3.4863 0.8636,-1.3129 2.1398,-3.0034 2.8359,-3.7567 1.1138,-1.2052 2.0159,-2.7469 2.8178,-4.8157 0.2245,-0.5792 0.253,-0.5836 0.3779,-0.058 0.2041,0.8596 -1.2631,3.5893 -3.0621,5.6972 -0.8824,1.0339 -1.8683,2.3888 -2.1909,3.011 -0.6298,1.215 -6.841,7.4596 -10.5721,10.6292 -1.2532,1.0645 -2.41118,2.1834 -2.57338,2.4864 -0.7404,1.3835 1.2715,9.1753 5.49668,21.2873 1.42,4.0706 2.7462,9.4668 3.4319,13.9649 0.6232,4.0878 1.3902,6.8938 2.8557,10.4472 0.5932,1.4383 1.4103,3.7645 1.8159,5.1692 0.4233,1.4665 0.9066,2.5542 1.1347,2.5542 0.2185,0 0.7066,-0.9164 1.0845,-2.0364 1.1893,-3.5238 3.5465,-7.5188 4.4365,-7.5188 0.5202,0 0.5367,-0.1553 -0.2326,2.1881 -0.8603,2.6207 -1.6106,6.9554 -1.2639,7.3021 0.1558,0.1558 0.6353,-0.1085 1.1142,-0.614 0.7732,-0.8162 0.7464,-0.7052 -0.3336,1.3839 -0.6459,1.2492 -1.2896,2.2713 -1.4306,2.2713 -0.4023,0 -0.3042,-2.067 0.2641,-5.5617 0.8118,-4.9924 -0.057,-4.7463 -1.8208,0.5159 -0.5549,1.6552 -1.0884,3.9851 -1.1857,5.1776 -0.1859,2.2808 -0.4559,2.6555 -1.4105,1.9574 z m -25.17858,-0.6153 c -0.8618,-0.9173 -0.8594,-1.0598 0.017,-1.0288 0.6396,0.023 0.723,-0.1612 0.9136,-2.0115 0.3103,-3.0141 0.7945,-4.8663 2.0474,-7.8322 1.5187,-3.5949 4.7939,-9.0619 4.7939,-8.002 0,1.6633 -1.5284,8.6616 -2.5002,11.4482 -0.6911,1.9815 -1.2571,3.9821 -1.2579,4.4458 0,0.4637 -0.1423,0.9302 -0.3146,1.0367 -0.7388,0.4565 -0.21,-2.373 1.2531,-6.7054 1.5841,-4.6907 2.1016,-7.9094 1.1112,-6.9113 -0.6073,0.612 -3.1307,6.3443 -3.7878,8.6047 -0.288,0.9907 -0.6142,3.0762 -0.7249,4.6346 -0.1107,1.5583 -0.3504,2.8826 -0.5326,2.9428 -0.1823,0.06 -0.6404,-0.2195 -1.0182,-0.6216 z m 10.9047,-0.4598 c 0,-1.3074 1.97088,-7.2493 3.30408,-9.9614 2.0392,-4.1483 1.8672,-4.5383 -1.1499,-2.6069 -3.54048,2.2663 -4.50638,3.4126 -7.22778,8.578 -1.3752,2.6101 -1.4861,2.7381 -1.4921,1.7231 0,-0.6031 0.5603,-2.7178 1.2532,-4.6993 1.1771,-3.366 2.7927,-11.3963 2.3766,-11.8124 -0.4082,-0.4082 -1.0757,0.3068 -2.4379,2.6109 -2.8228,4.7747 -4.9646,10.8401 -4.9646,14.0594 0,1.4453 -0.4172,1.586 -1.5916,0.5367 -1.2398,-1.1078 -2.3208,-4.538 -2.786,-8.8408 -1.5729,-14.5472 -2.3309,-17.6106 -6.286,-25.4025 -0.6633,-1.3069 -1.3724,-3.0368 -1.5758,-3.8444 -0.2034,-0.8076 -0.7634,-2.0117 -1.2445,-2.6759 -1.1842,-1.6347 -2.0405,-3.3621 -2.4849,-5.0125 -0.2035,-0.7556 -0.6814,-1.8827 -1.062,-2.5045 -0.3806,-0.6218 -0.862,-1.5222 -1.0697,-2.0008 -0.4301,-0.9907 -1.48,-6.8939 -1.7676,-9.9382 -0.2909,-3.0786 -2.2228,-10.495 -2.7339,-10.495 -0.5795,0 -0.4186,1.7063 0.536,5.6832 0.8869,3.6945 0.9192,4.1449 0.3137,4.3772 -0.2469,0.095 -1.9739,-0.2737 -3.8377,-0.8188 -1.8639,-0.545 -4.6577,-1.3455 -6.2084,-1.7789 -3.0827,-0.8614 -9.7845,-4.0742 -13.0014,-6.2327 -1.12,-0.7515 -3.1642,-1.2694 -4.5426,-2.4982 -1.3785,-1.2288 -2.8587,-1.916 -3.2895,-2.2006 -0.4308,-0.2847 -1.7593,-0.7993 -2.3911,-1.6949 l -1.6079,-2.2797 -0.5287,-3.9848 c -0.2513,-1.8941 -0.4962,-4.3311 -0.4565,-5.428 0.085,-2.3363 -0.2162,-3.1214 -0.8594,-2.2418 -0.5615,0.7679 -0.5378,3.6463 0.063,7.6654 0.7627,5.1007 0.5247,9.0417 -1.8321,11.9025 -0.6388,0.7754 -1.3966,1.9737 -1.684,2.6629 -0.2874,0.6893 -0.9107,1.6761 -1.3853,2.193 -0.4745,0.517 -1.8182,1.5464 -2.3123,2.2878 -0.4942,0.7414 -1.4411,1.7777 -2.1043,2.303 -3.2151,2.5463 -4.1251,5.47 -4.1292,13.2665 0,4.524 0.1194,5.9154 0.8096,9.2419 1.108,5.3402 1.2896,6.579 0.9643,6.579 -0.1529,0 -0.835,-1.1629 -1.5156,-2.5843 -0.6807,-1.4214 -1.979,-3.6418 -2.8852,-4.9343 -2.3056,-3.2883 -6.3888,-6.636 -7.157,-5.8679 -0.088,0.088 0.3219,0.9156 0.9109,1.8391 1.5748,2.4688 2.2558,3.9086 3.1638,6.6886 1.1777,3.6059 1.142,3.7625 -0.6426,2.8136 -1.4643,-0.7785 -2.3042,-0.9754 -2.3015,-0.5394 9e-4,0.1292 0.3499,1.0808 0.7758,2.1147 1.1922,2.8943 0.992,4.2478 -0.3593,2.4279 -2.6891,-3.6218 -7.5885,-8.8503 -8.2933,-8.8503 -0.4393,0 -0.2463,0.5686 1.0408,3.0667 2.0675,4.0126 1.97,4.4526 -0.6363,2.8711 -1.0936,-0.6636 -2.1185,-1.2499 -2.2775,-1.3029 -0.1589,-0.053 -0.4239,-2.8445 -0.5887,-6.2033 -0.1648,-3.3589 -0.4437,-7.4464 -0.6197,-9.0833 -0.8674,-8.0679 -0.964,-9.5303 -0.7801,-11.8033 0.2634,-3.2548 1.4527,-6.8314 3.0193,-9.0795 0.7016,-1.0067 2.4971,-3.0992 3.9902,-4.6499 2.4145,-2.5078 2.7617,-3.0169 3.1404,-4.6039 0.5695,-2.387 0.2742,-5.9998 -0.7503,-9.1807 -1.356,-4.2097 -1.7896,-6.7038 -1.9611,-11.2783 -0.1884,-5.0258 0.3619,-9.7672 1.6832,-14.5031 0.8107,-2.9055 0.8009,-3.719 -0.034,-2.8656 -0.982,1.0034 -1.6796,3.4681 -2.9033,10.2575 -0.1335,0.7411 -0.3838,1.3629 -0.5561,1.3818 -0.1723,0.019 -0.6247,-0.5875 -1.0053,-1.3475 -1.1757,-2.3478 -0.8449,-6.374 0.7858,-9.5634 0.3625,-0.7091 0.8259,-1.978 1.0297,-2.8196 0.4589,-1.8953 1.2608,-3.2522 3.1639,-5.3536 0.8121,-0.8968 1.8521,-2.4243 2.3111,-3.3946 0.6398,-1.3524 1.2728,-2.0867 2.7133,-3.1471 1.0333,-0.7607 1.9995,-1.3831 2.1471,-1.3831 0.1476,0 0.9585,-0.6129 1.8019,-1.362 2.1074,-1.8717 4.5911,-3.2336 6.8633,-3.7637 1.0874,-0.2537 2.6653,-0.9464 3.6605,-1.607 2.1923,-1.4552 3.671,-1.8999 7.2307,-2.1744 1.5663,-0.1208 3.3069,-0.4525 3.916,-0.7461 0.862,-0.4155 2.068,-0.5353 5.6392,-0.5603 2.4984,-0.018 5.4307,-0.1434 6.5161,-0.2799 1.4858,-0.1868 2.4149,-0.1225 3.7594,0.2602 0.9823,0.2796 2.6897,0.7256 3.7942,0.9911 1.5191,0.3653 2.3349,0.7839 3.3493,1.719 1.5024,1.3849 2.4641,1.7306 4.0829,1.4679 l 1.1044,-0.1792 -0.2599,1.3158 c -0.1429,0.7237 -0.2594,2.386 -0.259,3.6939 0,2.2117 0.081,2.4984 1.1426,4.0977 2.7407,4.1278 7.7368,5.3475 13.1782,3.2175 0.8123,-0.318 1.54,-0.5144 1.6171,-0.4364 0.4006,0.4051 -0.3468,1.9954 -1.7057,3.6292 -1.4604,1.7558 -1.9906,3.2488 -1.1534,3.2476 0.2154,-3e-4 0.6031,-0.3399 0.8616,-0.7545 1.1603,-1.8617 4.2441,-5.3042 5.7437,-6.4121 3.1357,-2.3164 8.1759,-4.3094 12.7401,-5.0375 8.50438,-1.3567 11.89178,-2.4855 14.63198,-4.876 0.9967,-0.8694 1.1027,-1.0712 0.656,-1.2478 -0.3346,-0.1323 -0.9176,0.078 -1.5664,0.5644 -2.7757,2.0817 -8.6356,3.8356 -13.85218,4.1459 -5.6785,0.3379 -10.3419,1.191 -11.2886,2.0651 -0.1637,0.1511 -0.4915,0.2748 -0.7284,0.2748 -0.2369,0 -1.4104,0.6337 -2.6077,1.4082 -4.4632,2.8873 -5.1214,3.1312 -8.4524,3.1329 -2.794,9e-4 -3.1063,-0.064 -4.5329,-0.9458 -0.8427,-0.521 -1.9595,-1.5563 -2.4817,-2.3007 -0.8886,-1.2665 -0.9475,-1.5277 -0.9179,-4.0653 0.036,-3.0706 0.6877,-5.0615 1.6572,-5.0615 1.1469,0 1.3779,0.7541 0.7964,2.599 -0.7237,2.2959 -0.4243,3.765 1.0722,5.2616 1.9535,1.9535 5.0788,2.392 7.9468,1.1149 1.7763,-0.7909 3.5544,-2.5471 5.838,-5.7664 0.7506,-1.0581 2.348,-2.7977 3.5498,-3.8658 1.2018,-1.0681 2.3111,-2.2736 2.4653,-2.679 0.3429,-0.9021 0.9532,-0.9416 1.7055,-0.1104 0.3118,0.3446 0.6861,0.6266 0.8317,0.6266 0.5212,0 0.2503,-0.7641 -0.5771,-1.6276 -0.787,-0.8216 -0.8,-0.8787 -0.1989,-0.8787 0.3536,0 1.0014,0.2819 1.4395,0.6265 0.9415,0.7406 1.481,0.8025 1.481,0.1699 0,-0.2512 -0.623,-0.8218 -1.3844,-1.268 -1.1883,-0.6964 -1.6877,-0.7981 -3.5245,-0.7181 -1.9476,0.085 -2.1491,0.1566 -2.2402,0.7981 -0.082,0.5741 0.049,0.7049 0.7049,0.7049 2.6637,0 -1.7767,4.4119 -5.774,5.7369 -3.0241,1.0024 -5.2546,1.2703 -7.1488,0.8585 -2.4172,-0.5253 -5.519,-2.2493 -7.4598,-4.146 -1.5569,-1.5216 -2.4776,-1.6638 -1.6145,-0.2494 0.3563,0.5838 0.3019,0.7463 -0.4768,1.4225 -1.0538,0.9153 -1.5287,0.9366 -3.2681,0.1471 -2.6472,-1.2017 -4.659,-5.9366 -4.4028,-10.3623 0.1349,-2.3308 0.2873,-2.7624 2.7768,-7.8649 2.4269,-4.9741 2.6425,-5.5729 2.7412,-7.6105 0.1034,-2.1355 0.063,-2.2793 -1.1723,-4.1811 -2.5571,-3.9362 -2.7923,-5.6479 -1.2721,-9.2562 1.6152,-3.8337 2.2707,-4.9464 3.4927,-5.9283 0.6498,-0.5222 1.3424,-1.4373 1.5392,-2.0336 0.1968,-0.5963 1.1695,-1.8802 2.1617,-2.8531 0.9921,-0.9729 1.8994,-2.0775 2.0163,-2.4545 0.269,-0.8679 2.1506,-2.5321 3.6106,-3.1934 0.6157,-0.2789 1.6148,-0.8869 2.2203,-1.3512 0.6055,-0.4643 1.8027,-0.9954 2.6605,-1.1802 0.8577,-0.1848 2.5464,-0.7876 3.7526,-1.3397 1.5857,-0.7257 2.7135,-1.0199 4.0727,-1.0625 1.0338,-0.032 2.9059,-0.341 4.1601,-0.6858 1.9203,-0.5279 3.0615,-0.613 7.2289,-0.5389 2.9022,0.052 5.22198,0.2342 5.60948,0.4416 0.3635,0.1946 1.7628,0.3599 3.1095,0.3674 3.1772,0.018 4.9788,0.3806 5.8329,1.1751 0.3786,0.3521 1.2455,0.7432 1.9266,0.869 0.8192,0.1513 1.7203,0.6758 2.6629,1.5498 0.7836,0.7266 2.1143,1.6229 2.9571,1.9916 2.2198,0.9713 8.6494,7.5276 8.6494,8.8199 0,0.4932 -1.5324,0.713 -3.3979,0.4875 -2.9477,-0.3564 -3.2693,-0.3534 -3.4034,0.032 -0.4188,1.2018 4.3827,1.5275 9.5405,0.6472 4.5337,-0.7738 7.7672,-0.7109 11.2356,0.2183 9.0291,2.419 16.4468,8.4283 20.6062,16.6937 2.4218,4.8125 2.2495,9.6506 -0.4531,12.7209 -1.5336,1.7423 -3.3752,2.4011 -6.7119,2.4011 -2.2524,0 -7.7641,-0.8805 -10.6553,-1.7022 -0.8615,-0.2449 -2.4828,-0.6078 -3.6028,-0.8065 -5.0101,-0.8888 -8.0659,-1.7763 -10.1796,-2.9563 -4.0881,-2.2824 -6.141,-4.0513 -8.7962,-7.5793 -1.8737,-2.4894 -2.1887,-2.7848 -2.4757,-2.3204 -0.171,0.2766 0.7975,1.7979 4.1628,6.5394 1.5694,2.211 2.5603,4.2981 2.5855,5.4456 0.07,3.1704 -0.6176,8.0044 -1.3718,9.6454 -0.6244,1.3586 -0.8365,2.452 -1.0027,5.1692 -0.1334,2.1814 -0.4876,4.3719 -0.9651,5.9686 -0.4148,1.3873 -0.7543,3.3009 -0.7543,4.2525 0,0.9515 -0.3524,2.9075 -0.7832,4.3467 -0.4308,1.4392 -0.7832,3.1702 -0.7832,3.8467 0,0.6765 -0.4307,2.5157 -0.9572,4.087 -0.5264,1.5714 -1.0741,3.7881 -1.2169,4.9261 -0.143,1.138 -0.4839,2.5024 -0.7577,3.0319 -0.4101,0.793 -0.4249,1.0232 -0.084,1.3064 0.3098,0.2571 0.5325,0.2058 0.884,-0.2035 0.6622,-0.7711 0.8751,-1.4807 1.1851,-3.9498 0.3774,-3.0055 3.2419,-9.7553 4.14,-9.7553 0.2706,0 0.4833,0.6722 0.6281,1.9849 0.1204,1.0917 0.3502,2.149 0.5107,2.3496 0.1605,0.2006 0.8726,1.4873 1.5825,2.8594 1.0806,2.0886 1.2907,2.7929 1.2907,4.327 0,1.4654 0.225,2.2938 1.1239,4.1372 1.4147,2.9013 1.602,4.7966 0.9603,9.7186 -0.3724,2.8562 -0.7134,4.2118 -1.4184,5.6392 -0.676,1.3682 -0.9885,2.5604 -1.1498,4.3853 -0.1348,1.5254 -0.4729,2.9967 -0.8639,3.7594 -0.3533,0.6893 -0.819,2.4253 -1.0348,3.858 -0.3851,2.5568 -1.1223,4.3712 -2.7513,6.7717 -1.0516,1.5496 -1.7428,4.032 -2.2446,8.0615 -0.2288,1.837 -0.5703,4.1911 -0.7589,5.2312 -0.3814,2.1035 -0.034,5.9558 0.7782,8.6308 0.2568,0.8458 0.467,2.3522 0.467,3.3474 0,0.9953 0.1526,2.2064 0.3392,2.6915 0.97,2.5223 1.2908,6.1954 1.0892,12.4735 -0.1999,6.227 -0.1956,6.287 0.7115,9.7118 0.502,1.8954 1.3479,4.6626 1.8797,6.1494 0.5319,1.4868 1.1107,3.5953 1.2863,4.6855 l 0.3192,1.9823 -2.7968,2.6097 c -1.5587,1.4545 -3.2992,3.4369 -3.9317,4.4781 -0.6242,1.0276 -1.2147,1.8683 -1.3122,1.8683 -0.3757,0 0.2717,-4.1402 1.0121,-6.4731 0.9326,-2.9386 0.9319,-2.9254 0.1767,-2.9254 -1.1211,0 -3.5161,3.7274 -4.7205,7.3468 -0.3755,1.1284 -0.777,2.0499 -0.8922,2.0477 -0.1152,0 -0.7212,-1.5177 -1.3466,-3.3678 -0.6255,-1.8501 -1.7113,-5.0555 -2.413,-7.1232 -0.7335,-2.1617 -1.4927,-5.224 -1.7863,-7.2056 -0.4617,-3.1156 -1.5698,-8.0335 -2.7531,-12.2181 -0.2436,-0.8615 -0.9407,-2.8352 -1.5491,-4.386 -2.6663,-6.7966 -5.28978,-17.3811 -4.61888,-18.6348 0.1526,-0.285 1.28908,-1.3545 2.52578,-2.3766 3.4722,-2.87 9.8602,-9.2516 10.4843,-10.4738 0.3079,-0.6031 1.3373,-2.0128 2.2875,-3.1328 2.0436,-2.4087 3.2705,-4.8922 3.1313,-6.3382 -0.1329,-1.3802 -0.635,-1.1083 -1.1378,0.6161 -0.511,1.7523 -1.627,3.5684 -3.3241,5.4088 -0.7151,0.7754 -1.8122,2.2556 -2.4381,3.2895 -0.6259,1.0338 -1.7287,2.3026 -2.4505,2.8195 -0.7218,0.517 -2.2686,1.797 -3.4373,2.8445 -1.532,1.3732 -2.6115,2.0577 -3.8692,2.4533 -2.61318,0.8219 -2.85088,0.6938 -2.85878,-1.5414 0,-1.4563 -0.1118,-1.8767 -0.4764,-1.8767 -0.3458,0 -0.5284,0.5302 -0.6913,2.0068 -0.3933,3.5667 1.6193,13.5415 4.33608,21.4897 3.385,9.9032 5.0585,16.2418 5.7334,21.7157 0.3757,3.0476 1.1482,5.6942 2.6762,9.1696 0.6054,1.3769 1.4573,3.8022 1.893,5.3894 0.4358,1.5873 1.0165,3.497 1.2906,4.244 0.2874,0.7832 0.3815,1.4749 0.2223,1.6341 -0.1592,0.1592 -0.9934,-0.067 -1.971,-0.5351 -1.5677,-0.7503 -1.9319,-0.7998 -4.8509,-0.6592 -2.8374,0.1367 -4.667,0.5548 -7.15028,1.6337 -0.4176,0.1815 -0.5483,0.091 -0.5483,-0.3811 z m 4.07268,-1.3668 c 3.1187,-0.7728 6.1215,-0.7585 8.2204,0.039 1.9983,0.7595 1.8969,0.7576 1.5064,0.028 -0.1763,-0.3293 -0.6728,-1.9924 -1.1034,-3.6958 -0.4306,-1.7034 -1.3626,-4.4297 -2.0711,-6.0585 -1.7685,-4.0656 -2.358,-6.1346 -2.92,-10.2486 -0.49,-3.5862 -3.0673,-14.3119 -3.7821,-15.7394 -0.701,-1.3999 -2.93098,-8.223 -3.73728,-11.4349 -1.6748,-6.6717 -2.4528,-11.2155 -2.4353,-14.2235 0.019,-3.2188 0.3723,-4.0308 1.5875,-3.6451 0.7687,0.244 1.0979,1.2732 0.9132,2.8553 l -0.1307,1.1192 1.0974,-0.2058 c 1.54478,-0.2898 3.97228,-1.5777 4.56188,-2.4202 0.2735,-0.3908 1.4464,-1.4187 2.6064,-2.2841 1.4036,-1.0471 2.5513,-2.2522 3.4312,-3.6027 0.7272,-1.1162 1.8912,-2.618 2.5868,-3.3374 1.2492,-1.2919 3.1393,-4.7797 3.1398,-5.7936 0,-1.5362 1.2382,-2.0862 1.9023,-0.8454 0.8294,1.5498 -0.3078,4.4482 -2.9822,7.6008 -0.9271,1.0928 -2.0149,2.63 -2.4174,3.4161 -0.4229,0.8258 -1.7899,2.3887 -3.2381,3.702 -1.3785,1.2501 -2.7883,2.6663 -3.1329,3.1471 -0.3446,0.4808 -1.8235,1.811 -3.2864,2.9559 -3.46858,2.7146 -3.52988,2.8101 -3.13228,4.881 0.1761,0.9173 0.46828,2.4432 0.64918,3.3909 0.1809,0.9477 0.5339,2.4279 0.7845,3.2895 0.2505,0.8615 0.6607,2.2713 0.9115,3.1328 0.8294,2.8491 1.3473,4.3587 2.3553,6.8654 1.6041,3.9887 3.0857,9.7314 4.2381,16.4269 0.8393,4.8767 1.4972,7.3113 2.7226,10.0751 0.4208,0.949 1.0924,2.7091 1.4924,3.9113 l 0.7274,2.1858 0.5352,-1.5617 c 1.1181,-3.2626 3.8241,-7.0442 5.0406,-7.0442 1.1765,0 1.2926,0.7833 0.4958,3.3463 -0.4188,1.3472 -0.8446,3.0134 -0.9464,3.7027 l -0.1849,1.2531 0.742,-1.2141 c 0.7094,-1.1609 2.9231,-3.373 5.1096,-5.1061 0.9814,-0.7778 1.0152,-0.8773 0.8218,-2.4147 -0.111,-0.8819 -0.8843,-3.6477 -1.7186,-6.1462 -2.365,-7.0829 -2.5511,-8.2892 -2.2993,-14.908 0.2223,-5.8425 -0.1054,-9.916 -1.0028,-12.4655 -0.235,-0.6678 -0.4274,-1.9463 -0.4274,-2.841 0,-0.8948 -0.218,-2.3612 -0.4846,-3.2588 -0.9703,-3.2674 -1.0912,-6.1874 -0.4375,-10.5669 0.3325,-2.227 0.6055,-4.4295 0.6067,-4.8944 0,-1.221 1.4676,-5.6769 2.1539,-6.5535 1.3262,-1.6943 2.2914,-4.0791 2.6712,-6.6005 0.2158,-1.4326 0.6814,-3.1687 1.0348,-3.8579 0.3882,-0.7575 0.7319,-2.2446 0.8688,-3.7594 0.1669,-1.8468 0.4976,-3.0834 1.2568,-4.6993 1.138,-2.4223 1.556,-5.0152 1.5659,-9.7119 0.01,-2.6333 -0.072,-2.9763 -1.1689,-5.1926 -0.9785,-1.9765 -1.1748,-2.6996 -1.1748,-4.328 0,-1.7539 -0.1637,-2.2587 -1.592,-4.9081 -0.9258,-1.7175 -1.6807,-3.5734 -1.804,-4.4353 l -0.212,-1.482 -1.5221,3.4374 c -1.1063,2.4984 -1.5944,4.0657 -1.7868,5.7376 -0.3443,2.9916 -1.0953,4.5587 -2.2485,4.6913 -1.1693,0.1345 -1.3979,-0.5999 -0.7497,-2.4088 0.2858,-0.7974 0.519,-1.9122 0.5181,-2.4771 0,-0.565 0.4293,-2.3273 0.9559,-3.9161 0.5267,-1.5889 1.0816,-3.9462 1.2333,-5.2385 0.1516,-1.2923 0.5117,-2.911 0.8002,-3.5972 0.2884,-0.6862 0.5921,-2.3779 0.6749,-3.7594 0.083,-1.3815 0.478,-3.6397 0.8781,-5.0181 0.4183,-1.4409 0.8188,-3.9046 0.9422,-5.7958 0.1658,-2.5409 0.4215,-3.8118 1.1237,-5.5845 0.6818,-1.7215 0.9094,-2.8175 0.9107,-4.386 0,-1.1501 0.148,-2.6175 0.3267,-3.261 0.2216,-0.7977 0.2237,-1.5453 0.01,-2.3496 -0.3263,-1.2104 -2.5144,-4.8572 -4.749,-7.9153 -2.0168,-2.7599 -2.2539,-3.3128 -1.6706,-3.896 0.7316,-0.7317 0.913,-0.6365 2.202,1.1547 2.0748,2.8834 5.3835,6.2722 7,7.1694 0.6114,0.3394 1.6756,0.9615 2.3649,1.3824 0.6892,0.4209 1.676,0.8961 2.193,1.0559 2.8845,0.8917 5.5143,1.5434 6.9382,1.7193 0.8867,0.1096 2.649,0.4807 3.916,0.8248 6.2809,1.7055 12.3485,2.3094 15.0551,1.4985 1.5294,-0.4582 3.7424,-2.8299 4.2635,-4.5694 0.741,-2.4731 0.2069,-6.4077 -1.262,-9.297 -1.286,-2.5297 -4.6663,-7.3383 -5.8812,-8.3662 -3.8161,-3.2289 -6.3286,-4.8953 -9.6914,-6.4277 -5.0715,-2.3112 -9.5406,-2.8012 -16.0012,-1.7546 -3.7439,0.6065 -6.756,0.6451 -8.6937,0.1115 -1.0725,-0.2955 -1.3314,-0.5064 -1.3314,-1.085 0,-1.0338 1.121,-1.5454 2.5042,-1.1427 0.6019,0.1753 1.8307,0.3187 2.7307,0.3187 l 1.6362,0 -0.6151,-1.0182 c -1.1078,-1.8338 -6.3325,-6.7347 -7.8923,-7.4033 -0.8017,-0.3437 -2.011,-1.1782 -2.6873,-1.8545 -0.8187,-0.8188 -1.6367,-1.3049 -2.4474,-1.4547 -0.6698,-0.1237 -1.5214,-0.5072 -1.8924,-0.8523 -0.9023,-0.8391 -2.5509,-1.1851 -5.69,-1.1941 -1.4329,0 -2.9039,-0.1674 -3.2691,-0.3628 -0.3884,-0.2079 -2.68688,-0.3935 -5.54018,-0.4473 -4.1384,-0.078 -5.2556,0.01 -7.3826,0.5627 -1.3785,0.3602 -3.2112,0.6297 -4.0727,0.599 -1.1908,-0.043 -2.0548,0.1792 -3.6028,0.9247 -1.12,0.5394 -2.8671,1.1791 -3.8825,1.4217 -1.1444,0.2733 -2.2499,0.7956 -2.9088,1.374 -0.5844,0.5132 -1.2416,0.9331 -1.4603,0.9331 -1.0224,0 -3.2581,1.8523 -3.9102,3.2396 -0.3728,0.793 -1.0666,1.6925 -1.5419,1.9989 -1.1973,0.7718 -1.8975,1.5989 -2.5937,3.0635 -0.3276,0.6893 -1.1298,1.7525 -1.7826,2.3628 -0.6529,0.6104 -1.4248,1.5972 -1.7154,2.193 -3.2259,6.6146 -3.246,7.7098 -0.2284,12.4906 0.9749,1.5447 1.07,1.9068 1.07,4.0727 0,2.3445 -0.037,2.4532 -2.6629,7.8598 -2.5851,5.3221 -2.6661,5.5575 -2.7727,8.0494 -0.1938,4.534 1.811,8.8291 4.571,9.7927 1.1924,0.4163 1.3549,0.4072 1.9246,-0.1084 0.5135,-0.4647 0.563,-0.6931 0.2833,-1.307 -0.2539,-0.5572 -0.2391,-0.8641 0.059,-1.223 0.613,-0.7386 0.9014,-0.608 2.7312,1.2365 2.0115,2.0276 5.4668,3.8507 7.8227,4.1275 1.649,0.1937 5.0576,-0.4515 7.2912,-1.3802 1.3812,-0.5742 3.0791,-1.7983 4.1609,-2.9997 l 0.8515,-0.9457 -0.6949,-0.345 c -0.9156,-0.4546 -1.0337,-1.477 -0.2524,-2.1841 0.5123,-0.4636 1.0267,-0.5445 2.8199,-0.4432 1.8173,0.1027 2.4237,0.286 3.5381,1.0692 1.652,1.1611 1.8877,2.4195 0.4835,2.5811 -0.4739,0.054 -0.8616,0.2917 -0.8616,0.5271 0,0.2354 -0.3084,0.5259 -0.6854,0.6456 -0.5052,0.1603 -0.8387,0.028 -1.2681,-0.502 l -0.5827,-0.7196 -1.0016,1.228 c -1.0687,1.3102 -1.6614,1.9156 -3.3726,3.4449 -0.5931,0.53 -1.6804,1.7988 -2.4163,2.8195 -3.5555,4.9321 -6.0959,6.5965 -9.6412,6.317 -3.1158,-0.2456 -5.4027,-1.8707 -6.152,-4.3716 -0.2875,-0.9595 -0.2601,-1.5423 0.14,-2.9798 0.483,-1.7352 0.4678,-2.2789 -0.063,-2.2789 -0.5819,0 -1.116,2.1739 -1.116,4.5426 0,2.284 0.083,2.6217 0.9367,3.8071 1.5158,2.1049 3.0902,2.7731 6.5174,2.7659 3.199,-0.01 3.8127,-0.2386 8.2102,-3.1036 1.2061,-0.7858 2.3575,-1.4297 2.5586,-1.4309 0.2011,-9e-4 1.047,-0.2943 1.8797,-0.6514 2.059,-0.883 3.8817,-1.1997 9.0329,-1.5696 2.4123,-0.1733 5.32268,-0.5096 6.46738,-0.7473 2.6107,-0.5423 6.6773,-2.1557 8.0256,-3.1841 1.2356,-0.9424 2.5185,-1.1004 2.9937,-0.3687 0.4699,0.7233 -0.247,1.4708 -2.8757,2.9988 -3.4695,2.0168 -5.471,2.6322 -11.47808,3.5297 -7.2684,1.0858 -12.9312,3.5262 -16.0422,6.9134 -1.4424,1.5705 -3.7527,4.534 -3.9449,5.0603 -0.3881,1.063 -2.0995,0.4501 -2.0995,-0.7519 0,-0.6274 1.5076,-2.9653 2.4791,-3.8445 0.3595,-0.3254 0.6537,-0.8382 0.6537,-1.1396 0,-0.5193 -0.078,-0.5184 -1.4881,0.017 -8.0859,3.0687 -15.7142,-2.5905 -14.2501,-10.5717 l 0.3017,-1.6448 -0.9071,0 c -1.3465,0 -3.133,-0.8343 -4.0199,-1.8773 -1.135,-1.3347 -6.0764,-2.6716 -9.5552,-2.5852 -1.3785,0.034 -4.4047,0.06 -6.7249,0.056 -3.4177,0 -4.5477,0.1117 -5.9524,0.6131 -0.9536,0.3405 -3.2529,0.7674 -5.1095,0.9489 -1.8747,0.1832 -3.7553,0.5453 -4.2294,0.8144 -0.4695,0.2665 -1.5383,0.9074 -2.3752,1.4242 -0.8368,0.5169 -2.2466,1.0924 -3.1328,1.2789 -1.8645,0.3926 -5.2526,2.1874 -6.6205,3.5073 -0.5188,0.5006 -1.5072,1.2599 -2.1964,1.6873 -3.1341,1.9437 -3.6088,2.3846 -4.4355,4.1191 -0.4616,0.9686 -1.4965,2.5365 -2.2997,3.4842 -2.0802,2.4542 -2.5584,3.2669 -3.4914,5.9346 -0.4554,1.3021 -1.1205,3.1428 -1.4779,4.0905 -0.7712,2.0448 -0.8802,5.3819 -0.2265,6.9346 0.4338,1.0305 0.4473,1.0366 0.5978,0.271 1.7287,-8.7901 2.7973,-11.3957 4.4182,-10.7737 0.5789,0.2221 0.6289,0.9886 0.1448,2.2162 -1.1383,2.8864 -2.1455,9.6075 -2.1509,14.3532 -0.01,4.3803 0.6335,8.615 1.8904,12.5386 2.2834,7.1284 1.4824,11.1238 -3.0071,14.9998 -2.1713,1.8745 -4.6392,5.6489 -5.489,8.3948 -0.794,2.5653 -0.9258,7.477 -0.3474,12.9394 0.2007,1.8953 0.5113,5.7722 0.6901,8.6153 0.1788,2.8431 0.3998,6.1561 0.4909,7.3622 l 0.1658,2.193 1.5462,0.8615 c 0.8504,0.4738 1.5463,0.7148 1.5463,0.5357 0,-0.4282 -1.1381,-2.6466 -2.1156,-4.1237 -0.9025,-1.3637 -0.7536,-2.1294 0.414,-2.1294 0.8866,0 1.6351,0.6708 4.5225,4.0533 0.9469,1.1093 2.0356,2.346 2.4193,2.7482 0.3836,0.4021 0.8654,1.0449 1.0706,1.4283 0.6676,1.2474 0.6479,0 -0.024,-1.5192 -0.3562,-0.8054 -0.6477,-1.6429 -0.6477,-1.861 0,-0.6647 0.861,-0.7769 2.2363,-0.2917 0.7192,0.2538 1.3603,0.4086 1.4249,0.3441 0.2565,-0.2566 -1.8889,-5.5853 -2.9403,-7.3032 -1.7089,-2.792 -1.9381,-3.2803 -1.7591,-3.7469 0.3054,-0.7959 1.5892,-0.441 3.4351,0.9496 2.1188,1.5962 2.7185,2.2119 4.4527,4.5719 0.6964,0.9477 1.4018,1.8805 1.5676,2.0729 0.1658,0.1924 0.6146,1.0778 0.9973,1.9676 0.3828,0.8897 0.7455,1.5682 0.8061,1.5076 0.061,-0.061 -0.2668,-1.8623 -0.7274,-4.0039 -1.0682,-4.9669 -1.2108,-12.7137 -0.3061,-16.6295 0.6234,-2.6987 2.4148,-5.5701 3.9798,-6.3794 0.5018,-0.2594 1.0766,-0.7786 1.2773,-1.1537 0.2007,-0.375 0.4857,-0.8317 0.6333,-1.0149 1.7713,-2.1984 3.4648,-3.883 3.9471,-5.0081 0.3217,-0.7504 0.7023,-1.4153 0.8459,-1.4775 0.4904,-0.2125 1.6681,-2.1197 2.3345,-3.7803 0.8169,-2.0359 0.4,-6.1562 -0.2353,-9.6925 -0.8095,-4.5053 -0.065,-8.2332 1.4542,-7.2791 0.4396,0.2761 0.577,0.9876 0.7249,3.7541 0.1004,1.8774 0.3627,4.4707 0.583,5.763 0.3775,2.2152 0.4745,4.0569 1.695,4.943 0.7121,0.5169 1.679,1.1527 2.1488,1.4129 0.4698,0.2602 2.0454,1.0122 3.5015,2.3448 1.456,1.3325 3.4692,1.8625 4.4738,2.525 3.2104,2.117 9.8772,5.31 12.7915,6.1264 1.5508,0.4344 3.9474,1.1318 5.3259,1.5498 4.0542,1.2293 4.5426,1.2957 4.5426,0.6179 0,-0.3192 -0.3344,-1.9164 -0.7433,-3.5494 -1.1009,-4.3978 -1.2261,-5.3031 -0.8034,-5.8123 0.5972,-0.7196 1.8246,-0.5603 1.9928,0.2587 0.08,0.3877 0.5878,2.6081 1.1293,4.9342 0.5416,2.3262 1.1102,5.3572 1.2636,6.7357 0.7287,6.5484 1.1288,8.2264 2.5014,10.4917 0.4709,0.7772 1.0776,2.1885 1.3482,3.1362 0.2706,0.9477 1.0823,2.6301 1.8038,3.7386 0.7215,1.1086 1.5543,2.8004 1.8508,3.7595 0.2964,0.9591 1.1788,3.0126 1.9607,4.5634 2.6612,5.2772 3.7051,8.4866 4.4329,13.6279 0.2805,1.9815 0.6487,4.5896 0.8183,5.7958 0.1696,1.2061 0.4581,3.6663 0.6412,5.467 0.1831,1.8008 0.4433,3.4925 0.5784,3.7595 0.135,0.2669 0.4133,1.1729 0.6184,2.0133 0.2052,0.8404 0.6778,1.7748 1.0503,2.0765 l 0.6773,0.5484 0.6771,-3.3296 c 0.7453,-3.6648 2.5642,-8.0592 4.989,-12.0532 1.1551,-1.9026 1.609,-2.398 2.1971,-2.398 0.4077,0 0.834,0.1501 0.9474,0.3336 0.3577,0.5787 -0.7937,7.2226 -1.7609,10.1615 -0.5104,1.5507 -1.011,3.1015 -1.1124,3.4461 -0.1014,0.3446 0.4762,-0.4618 1.2836,-1.792 1.5124,-2.4921 3.1873,-4.1198 6.03468,-5.8649 2.9476,-1.8065 4.0089,-0.7848 2.3112,2.2252 -1.0848,1.9235 -2.403,5.2844 -3.05178,7.7813 -0.2463,0.9477 -0.53,1.9911 -0.6304,2.3187 -0.1489,0.4859 -0.075,0.5504 0.4018,0.3498 0.3214,-0.1352 1.64168,-0.5079 2.93398,-0.8282 z M 961.99832,1244.554 c -1.3136,-0.7668 -3.3804,-3.1503 -3.7228,-4.2931 -0.5645,-1.8838 0.1298,-2.9811 2.4351,-3.8489 1.5083,-0.5678 2.1672,-0.645 3.9989,-0.4682 4.0719,0.3929 7.0073,2.3255 6.603,4.3473 -0.2434,1.2171 -1.0362,2.0782 -1.9133,2.0782 -0.9119,0 -3.9724,1.3608 -4.5057,2.0033 -0.4596,0.5539 -2.083,0.6556 -2.8952,0.1814 z m 2.8606,-0.7662 c 0.5281,-0.6363 3.6808,-2.0451 4.5767,-2.0451 1.3183,0 1.8944,-2.2596 0.8232,-3.229 -1.065,-0.9638 -3.463,-1.7873 -5.7734,-1.9826 -1.9379,-0.1638 -2.5576,-0.091 -3.7624,0.4419 -1.84,0.8139 -2.315,1.6391 -1.8454,3.2063 0.5138,1.7151 3.133,4.0697 4.527,4.0697 0.5893,0 1.2438,-0.2076 1.4543,-0.4612 z m -3.6851,-1.113 c -1.3243,-1.2726 -2.2601,-2.732 -2.2601,-3.5248 0,-0.5405 1.1351,-1.5568 2.286,-2.0468 1.0707,-0.4558 3.3394,-0.4799 3.9797,-0.042 0.3644,0.2491 0.2589,0.3078 -0.4699,0.2613 -2.2685,-0.1448 -3.267,0.056 -4.2053,0.8455 -0.5302,0.4461 -0.9634,1.0453 -0.9628,1.3315 0,0.6331 1.2189,2.6943 1.4531,2.4601 0.092,-0.092 -0.1407,-0.584 -0.5172,-1.0933 -0.8254,-1.1164 -0.734,-1.834 0.3351,-2.6315 1.9062,-1.4217 9.2438,-0.2393 8.272,1.333 -0.1317,0.2133 -0.5979,0.2833 -1.15,0.1729 -0.9571,-0.1914 -1.3933,0.1313 -3.2795,2.4265 -0.6874,0.8365 -2.0733,1.1279 -2.4517,0.5156 -0.1065,-0.1723 -0.3615,-0.3088 -0.5668,-0.3033 -0.7113,0.019 0.8468,0.9299 1.5906,0.9299 0.7454,0 2.1608,-1.1774 2.8028,-2.3317 0.2354,-0.4231 0.8019,-0.6624 1.8588,-0.7853 1.4155,-0.1645 1.5163,-0.2345 1.4637,-1.0179 -0.073,-1.0867 0.7568,-0.847 1.0451,0.3019 0.2613,1.0409 -0.2033,1.7342 -1.3318,1.9872 -1.2148,0.2724 -3.9133,1.5149 -4.4449,2.0465 -0.8013,0.8012 -2.0618,0.4959 -3.4469,-0.835 z m 3.9586,-1.8522 c 0.9819,-1.1645 1.5554,-1.5736 2.3204,-1.6552 l 1.0161,-0.1084 -1.4098,-0.4152 c -0.7754,-0.2283 -2.2803,-0.4105 -3.3444,-0.4048 -3.3279,0.018 -4.0516,0.9849 -2.2623,3.0229 1.3452,1.532 2.093,1.4427 3.68,-0.4393 z m 1.3001,-3.4659 c -0.5726,-0.3701 -0.078,-0.3701 0.7833,0 0.4131,0.1775 0.4665,0.2751 0.1566,0.2865 -0.2585,0.01 -0.6814,-0.1195 -0.9399,-0.2865 z m 22.7132,-6.7019 c -0.6892,-0.2168 -1.5831,-0.5717 -1.9864,-0.7885 -0.5838,-0.3138 -0.9234,-0.3154 -1.6654,-0.01 -0.7879,0.3264 -1.0102,0.3079 -1.4379,-0.1198 -0.4657,-0.4657 -0.4414,-0.6375 0.3057,-2.1612 1.017,-2.0744 1.3931,-4.005 0.7801,-4.005 -0.5873,0 -1.7919,-1.3298 -1.7919,-1.9782 0,-0.3779 0.2673,-0.5281 0.9399,-0.5281 0.602,0 0.9399,-0.1595 0.9399,-0.4438 0,-0.5811 0.5541,-0.7605 1.7736,-0.5743 0.5527,0.084 1.626,-0.091 2.428,-0.3978 2.6662,-1.0182 5.1999,-0.2112 8.4247,2.6834 1.9931,1.789 2.26398,2.7871 0.8466,3.1194 -0.439,0.1029 -0.8318,0.4519 -0.8962,0.7961 -0.1779,0.9516 -2.7223,3.7632 -3.9199,4.3315 -1.2621,0.5989 -2.9877,0.626 -4.7408,0.074 z m 5.1656,-1.0084 c 1.2821,-0.8484 3.1365,-3.3909 3.1365,-4.3003 0,-0.3467 0.2619,-0.5208 0.7832,-0.5208 1.1645,0 0.9627,-0.5248 -0.8248,-2.1451 -2.9439,-2.6686 -5.368,-3.3992 -7.9749,-2.4036 -0.8611,0.3289 -1.854,0.4814 -2.4762,0.3804 -0.8425,-0.1367 -1.0684,-0.055 -1.1961,0.4335 -0.1042,0.3986 -0.4319,0.6019 -0.9699,0.6019 -1.1236,0 -1.0159,0.5278 0.2614,1.2814 0.9817,0.5792 1.0599,0.733 0.9109,1.7908 -0.09,0.6365 -0.4973,1.8601 -0.906,2.7193 -0.7928,1.6668 -0.6197,2.3462 0.4307,1.6902 0.5445,-0.3401 0.8755,-0.2988 2.1516,0.2683 2.0862,0.9271 2.2531,0.9694 3.9427,0.9973 1.1152,0.018 1.8087,-0.183 2.7309,-0.7933 z m -5.011,0.212 c -0.4319,-0.1313 -1.2576,-0.4831 -1.8351,-0.7817 -0.6183,-0.3198 -1.358,-0.4656 -1.7994,-0.3549 -0.8996,0.2258 -0.8937,0.2784 -0.1604,-1.4287 0.324,-0.7542 0.6785,-1.9731 0.7879,-2.7087 0.1804,-1.2133 0.1285,-1.3642 -0.5586,-1.6255 -1.1108,-0.4223 -1.3151,-0.9532 -0.3669,-0.9532 0.5038,0 0.8017,-0.1746 0.8017,-0.4699 0,-0.325 0.3265,-0.4699 1.0583,-0.4699 0.582,0 1.6019,-0.2272 2.2665,-0.5049 2.4101,-1.007 5.5112,0 8.0445,2.6201 1.0769,1.1124 1.1224,1.2243 0.4882,1.2005 -0.5416,-0.02 -0.7465,0.1983 -0.9084,0.9694 -0.2615,1.2457 -1.8703,3.3063 -3.2442,4.1554 -1.075,0.6644 -3.048,0.8162 -4.5741,0.352 z m 4.0748,-2.3702 c 0.3111,-0.3749 0.3111,-0.5649 0,-0.9398 -0.8334,-1.0041 -2.2277,-0.2622 -1.7664,0.9398 0.099,0.2585 0.4494,0.47 0.7783,0.47 0.3289,0 0.7736,-0.2115 0.9881,-0.47 z m 2.9587,-2.5347 c 0.2128,-1.0203 -0.423,-1.9434 -1.0653,-1.5465 -0.3622,0.2239 -0.4527,2.7546 -0.1107,3.0966 0.3352,0.3352 0.9523,-0.4782 1.176,-1.5501 z m 57.70898,1.0207 c -0.5428,-0.5743 -1.5123,-1.9054 -2.1546,-2.958 -1.0757,-1.763 -1.3078,-1.958 -2.9438,-2.4737 -1.4788,-0.4662 -1.8478,-0.7314 -2.2043,-1.5847 -0.3697,-0.8848 -0.5802,-1.0248 -1.5411,-1.0248 -1.5213,0 -2.3248,-0.491 -2.3248,-1.4208 0,-0.7486 -0.068,-0.7722 -2.2359,-0.7722 -1.2297,0 -4.014,0.2971 -6.1873,0.6601 -5.1371,0.8581 -8.558,0.7335 -11.0289,-0.4016 -2.8241,-1.2974 -4.548,-3.7046 -2.653,-3.7046 0.4205,0 0.8535,0.1436 0.962,0.3192 0.1085,0.1756 0.9274,0.7017 1.8199,1.1691 1.4609,0.7652 1.9347,0.8479 4.7554,0.8302 1.7231,-0.011 4.4722,-0.2671 6.1091,-0.5696 4.0677,-0.7517 9.6425,-0.7351 11.2113,0.033 0.6372,0.3121 1.3217,0.9009 1.5212,1.3084 0.1994,0.4076 0.9407,0.9999 1.6472,1.3162 0.8816,0.3947 1.2845,0.7709 1.2845,1.1993 0,0.3666 0.3995,0.8577 0.9681,1.1901 0.9041,0.5285 3.7312,3.9246 3.7312,4.4821 0,0.1382 0.4934,0.5425 1.0965,0.8983 1.1945,0.7047 1.3672,1.2925 0.6042,2.0555 -0.7396,0.7396 -1.3462,0.6022 -2.4369,-0.5519 z m -69.69028,-8.1038 c -0.2068,-0.2068 -0.376,-0.5584 -0.376,-0.7813 0,-0.6487 2.3081,-2.1408 4.2624,-2.7555 1.6778,-0.5278 1.9064,-0.5322 3.3894,-0.065 0.8745,0.2753 2.2209,0.5848 2.9917,0.6878 1.5335,0.205 2.5145,0.8863 2.5145,1.7464 0,0.7736 -0.5476,0.8717 -2.0195,0.3618 -1.4663,-0.5079 -3.8243,-0.3052 -5.2947,0.4551 -0.8991,0.465 -0.9795,0.4556 -1.4881,-0.1724 l -0.5376,-0.664 -1.3608,0.778 c -1.5788,0.9026 -1.5867,0.9041 -2.0813,0.4095 z m 24.37358,174.2493 c -0.4178,-0.27 -0.4178,-0.3037 0,-0.3037 0.2584,0 0.6814,0.1367 0.9398,0.3037 0.4177,0.27 0.4177,0.3037 0,0.3037 -0.2584,0 -0.6814,-0.1367 -0.9398,-0.3037 z m -25.99028,-2.6028 c -2.4004,-1.5711 -2.8264,-1.9596 -2.2413,-2.0439 0.6282,-0.091 0.6985,-0.2337 0.5388,-1.0965 -0.101,-0.5458 -0.3999,-2.9661 -0.6642,-5.3784 -0.8333,-7.607 -2.4352,-15.7231 -3.2674,-16.5554 -0.4363,-0.4362 -2.6954,0.5195 -4.5277,1.9154 -0.8437,0.6428 -1.718,1.3047 -1.943,1.4709 -0.2249,0.1662 -0.5133,0.1979 -0.6407,0.071 -0.2979,-0.2979 0.2928,-1.938 1.8099,-5.0256 1.2275,-2.4983 1.3075,-3.1561 0.3398,-2.7936 -0.4776,0.1789 -0.4879,0.1398 -0.091,-0.3476 0.2459,-0.3021 0.845,-0.755 1.3314,-1.0065 0.4864,-0.2516 0.8844,-0.6194 0.8844,-0.8175 0,-0.7116 -2.2762,-4.9496 -2.6583,-4.9496 -0.2149,0 -0.6949,0.8344 -1.0668,1.8543 -0.3718,1.0199 -1.1459,2.6347 -1.7202,3.5884 -1.3447,2.233 -2.0029,4.4677 -1.4703,4.9912 0.2964,0.2912 0.4989,0.2351 0.9114,-0.2522 1.083,-1.2797 1.7318,-1.5266 0.7705,-0.2932 -0.5458,0.7002 -1.1649,1.6518 -1.3758,2.1147 -0.4825,1.0589 -0.8402,1.0694 -1.1006,0.032 -0.3172,-1.2638 0.1048,-3.8575 0.8573,-5.2692 2.6828,-5.0329 2.9714,-5.8263 2.1195,-5.8263 -0.5639,0 -2.356,2.0092 -3.2832,3.6808 -0.5017,0.9044 -1.0028,1.6446 -1.1136,1.6448 -0.3423,0 -0.576,-0.9051 -1.053,-4.0809 -0.5636,-3.7527 -0.9065,-4.7436 -1.5551,-4.4947 -0.3254,0.1249 -0.4788,0 -0.4765,-0.3976 0.01,-1.0392 0.3866,-2.9314 0.5894,-2.9314 0.2287,0 1.5311,4.9847 1.9646,7.5189 0.402,2.3502 0.7555,2.5995 1.7769,1.2531 0.9988,-1.3166 2.3838,-2.6954 3.7765,-3.7594 l 1.0251,-0.7832 -1.9097,-3.9396 c -1.4164,-2.9219 -2.1922,-5.0612 -3.0032,-8.2813 -0.6014,-2.3878 -1.2943,-4.6482 -1.5399,-5.0229 -0.3098,-0.4728 -1.4357,-0.9893 -3.6795,-1.6879 -1.7781,-0.5536 -3.8498,-1.2055 -4.6036,-1.4485 -0.7538,-0.2431 -1.512,-0.3545 -1.6848,-0.2477 -0.7061,0.4364 0.4942,6.235 2.746,13.2657 1.1815,3.6887 2.2262,7.455 2.8242,10.1818 0.9975,4.5479 1.7222,4.8026 1.4779,0.5193 -0.1076,-1.8883 -0.045,-2.8517 0.1957,-3.0003 0.2521,-0.1559 0.3542,0.5007 0.3542,2.2783 0,1.3734 0.2115,3.6022 0.4699,4.9527 0.2584,1.3505 0.4699,3.206 0.4699,4.1232 10e-5,2.4569 -0.6868,2.0603 -2.8886,-1.6677 -1.2721,-2.1539 -2.7005,-4.0003 -4.5716,-5.9089 -2.7975,-2.8536 -2.6779,-3.2472 0.2003,-0.6595 1.2988,1.1678 1.6568,1.3567 1.8107,0.9558 0.2053,-0.5351 -0.9219,-4.8733 -2.4306,-9.3541 -1.5015,-4.4595 -3.0754,-10.4815 -3.68,-14.08 -0.3102,-1.8465 -0.7339,-3.5619 -0.9415,-3.8121 -0.6581,-0.793 -4.5126,-2.9715 -6.4162,-3.6265 -3.3036,-1.1366 -6.9591,-2.7207 -9.2711,-2.3243 -2.3343,0.4002 -4.393,1.3275 -4.393,1.9787 0,0.2438 0.1512,0.8401 0.3359,1.3251 0.508,1.334 1.1998,6.0524 1.5171,9.0332 0.7261,6.8218 1.6797,13.6566 1.9439,13.9334 0.1882,0.1972 0.5384,0.1478 0.9885,-0.1393 0.3834,-0.2445 1.4642,-0.9106 2.4017,-1.4802 2.6088,-1.5849 4.9777,-1.2787 3.1193,0.4032 -0.7791,0.7051 -1.6561,2.3034 -1.4028,2.5567 0.098,0.098 1.2713,-0.3195 2.6077,-0.9273 3.0721,-1.3972 5.0678,-1.9654 5.4746,-1.5586 0.3721,0.3721 -4.5864,5.9657 -6.1386,6.925 -0.5778,0.3571 -1.5631,1.3071 -2.1895,2.1112 -1.875,2.4066 -1.5515,2.5333 1.9333,0.7571 3.8734,-1.9742 7.5467,-2.7602 8.8326,-1.89 0.3544,0.2398 0.2713,0.2721 -0.3377,0.1314 -1.8953,-0.4379 -9.1881,2.2451 -12.0631,4.438 -1.1984,0.914 -1.3838,0.923 -1.3838,0.067 0,-1.1036 1.7362,-3.1224 6.4448,-7.4939 2.3462,-2.1783 3.7215,-4.0145 3.1664,-4.2275 -0.6055,-0.2323 -3.9915,1.352 -6.3217,2.9579 -2.3858,1.6443 -2.5901,1.1654 -0.7931,-1.8594 0.7125,-1.1993 1.21,-2.3188 1.1056,-2.4878 -0.4783,-0.7738 -4.8307,2.3641 -9.4211,6.7921 -2.6401,2.5467 -3.6811,3.8878 -5.1458,6.6292 -0.6031,1.1288 -1.2599,2.103 -1.4596,2.1649 -0.5205,0.1615 -0.832,-1.6113 -0.5828,-3.3172 0.1173,-0.8026 0.6167,-3.0805 1.1098,-5.062 1.1871,-4.7698 1.3632,-5.8429 0.9962,-6.0697 -0.4639,-0.2867 -0.8503,0.372 -1.631,2.7802 -0.391,1.2061 -0.928,2.6159 -1.1933,3.1329 -0.2654,0.5169 -1.1273,2.8229 -1.9154,5.1245 -0.7882,2.3016 -1.574,4.1937 -1.7463,4.2046 -0.1723,0.011 -0.5952,-0.5728 -0.9399,-1.297 -0.3446,-0.7242 -1.6213,-3.3564 -2.8371,-5.8493 -1.2159,-2.4929 -2.175,-4.5325 -2.1315,-4.5325 0.2513,0 2.3977,3.6171 3.2534,5.4825 0.5532,1.2062 1.1655,2.5314 1.3606,2.945 0.1951,0.4135 0.4956,0.6955 0.6679,0.6265 0.4454,-0.1782 0.2747,-1.6291 -0.8624,-7.3309 -0.8614,-4.3194 -1.0007,-5.6842 -1.0072,-9.8685 -0.01,-6.0972 0.4339,-8.4634 2.0566,-10.9739 0.665,-1.0289 1.3556,-1.8708 1.5346,-1.8708 0.4247,0 3.1344,-2.8294 3.1344,-3.273 0,-0.1877 1.1075,-1.0146 1.7876,-1.8375 0.68,-0.823 1.3295,-1.8073 1.4433,-2.1873 0.1138,-0.38 0.8008,-1.4664 1.5267,-2.4141 2.5504,-3.3297 2.7693,-7.0263 1.9934,-12.2157 -0.5538,-3.7035 -0.6326,-7.0799 -0.172,-7.3646 0.1972,-0.1219 0.3119,0.5964 0.3096,1.9396 0,1.1732 0.2311,3.7059 0.518,5.6281 l 0.5217,3.4951 2.6931,3.5369 c 1.0951,1.4381 3.7505,2.2758 5.0428,3.4289 1.2923,1.1532 3.125,1.5213 4.0727,2.1654 2.9947,2.0352 10.3488,5.5633 13.3147,6.3877 1.5507,0.431 4.3907,1.238 6.3111,1.7932 1.9204,0.5553 3.7179,0.9227 3.9944,0.8166 0.6737,-0.2585 0.6366,-0.9672 -0.2465,-4.7112 -0.9931,-4.2101 -1.21,-5.5273 -0.9096,-5.5229 0.3786,0.01 2.2789,8.2545 2.5973,11.2747 0.5507,5.2239 1.2422,8.2191 2.4952,10.8083 0.6672,1.3784 1.4444,3.1666 1.7273,3.9737 0.2828,0.807 1.0629,2.3163 1.7336,3.3539 0.6706,1.0376 1.3739,2.4605 1.5628,3.1621 0.1889,0.7016 1.1854,2.9988 2.2145,5.1048 3.3637,6.8838 4.0171,9.6187 5.4525,22.8211 0.2364,2.1749 0.723,4.9036 1.0814,6.0638 0.3584,1.1602 0.6516,2.3302 0.6516,2.6001 0,0.2698 0.2333,0.7484 0.5185,1.0635 0.7522,0.8311 0.5715,0.7372 -2.6991,-1.4034 z m -8.9893,-24.653 c 0.9159,-0.517 1.8923,-0.9399 2.1698,-0.9399 0.929,0 0.9421,-0.6845 0.049,-2.5528 -0.589,-1.2323 -1.0496,-1.825 -1.372,-1.7657 -0.267,0.049 -1.1427,1.3563 -1.9459,2.9051 -1.8986,3.661 -1.7567,3.9649 1.0989,2.3533 z m -1.9881,0.3324 c 0,-0.6034 2.4997,-5.345 2.8178,-5.345 0.2536,0 1.8815,2.8116 1.8815,3.2496 0,0.076 -0.9516,0.6026 -2.1147,1.1711 -1.1631,0.5685 -2.2204,1.087 -2.3497,1.1522 -0.1292,0.065 -0.2349,-0.037 -0.2349,-0.2279 z m 2.6262,-1.6343 1.3899,-0.6752 -0.4996,-1.0478 c -0.2749,-0.5763 -0.5852,-1.0478 -0.6897,-1.0478 -0.1045,0 -0.5703,0.7753 -1.0351,1.723 -0.4648,0.9477 -0.7799,1.7231 -0.7002,1.7231 0.08,0 0.7703,-0.3039 1.5347,-0.6753 z m -48.831,-4.5225 c 0.6162,-0.9634 1.7325,-2.3379 2.4805,-3.0545 0.748,-0.7166 1.9585,-2.0027 2.69,-2.8581 l 1.3301,-1.5551 -0.1994,-2.8308 c -0.3005,-4.2647 -2.2637,-17.2971 -2.9275,-19.4331 -0.3302,-1.0626 -0.7822,-1.9108 -1.0411,-1.9538 -0.2518,-0.042 -0.9178,0.5376 -1.4802,1.2875 -0.5624,0.7499 -2.1907,2.5455 -3.6186,3.9901 -3.303,3.3419 -3.661,4.3181 -3.661,9.9838 0,2.1977 0.2015,5.1773 0.4477,6.6214 0.2462,1.4441 0.5444,3.4363 0.6627,4.427 0.2992,2.5067 1.0007,2.4518 2.001,-0.1566 3.2534,-8.4835 3.7429,-9.1906 4.0196,-5.8068 0.097,1.1892 -0.1737,2.9358 -0.9614,6.1984 -1.3138,5.4419 -1.5003,6.4445 -1.2462,6.6986 0.3057,0.3057 0.3232,0.2875 1.5038,-1.558 z m -1.1,-0.2064 c 0,-0.2154 0.4924,-2.3653 1.0925,-4.7776 1.0563,-4.2459 1.2728,-6.3571 0.8193,-7.9871 -0.4769,-1.7138 -1.0973,-1.0367 -2.6478,2.8899 -2.1099,5.3435 -2.4863,6.1937 -2.7423,6.1937 -0.123,0 -0.3191,-0.7401 -0.4359,-1.6447 -0.1167,-0.9046 -0.4119,-2.8263 -0.6559,-4.2704 -0.2441,-1.4441 -0.4438,-4.4237 -0.4438,-6.6214 0,-5.7026 0.3507,-6.6372 3.759,-10.02 1.4757,-1.4646 3.0935,-3.2053 3.5951,-3.8681 0.8261,-1.0916 0.949,-1.1545 1.3049,-0.6679 0.2161,0.2956 0.6202,1.5366 0.898,2.7578 0.6687,2.9401 2.2678,14.3573 2.5087,17.9124 l 0.1912,2.8195 -3.0088,3.2564 c -1.6548,1.7911 -3.1487,3.518 -3.3199,3.8378 -0.3536,0.6608 -0.9163,0.7776 -0.9143,0.1897 z m 5.8659,-6.5447 c 0.777,-0.8056 0.7923,-0.9042 0.5797,-3.7594 -0.4241,-5.6979 -2.4268,-18.4836 -3.0415,-19.4176 -0.2235,-0.3395 -0.4324,-0.2307 -0.9757,0.5079 -0.7082,0.9629 -1.2866,1.5538 -3.7058,3.7858 -2.7939,2.5778 -3.1099,3.5059 -3.1099,9.1339 0,4.1277 0.8094,10.8509 1.2719,10.565 0.123,-0.076 0.9616,-2.0344 1.8637,-4.3521 0.9021,-2.3176 1.8377,-4.2897 2.079,-4.3823 0.7266,-0.2788 1.6185,0.9319 1.8567,2.5206 0.2368,1.5789 -0.122,4.0228 -1.1469,7.8119 -0.3292,1.2171 -0.5986,2.325 -0.5986,2.462 0,0.137 0.9292,-0.7178 2.0647,-1.8997 1.1356,-1.1818 2.4238,-2.521 2.8627,-2.976 z m 31.941,7.5042 c -0.1,-0.25 -0.1742,-0.1757 -0.1892,0.1892 -0.014,0.3303 0.06,0.5153 0.1645,0.4112 0.1041,-0.1041 0.1153,-0.3743 0.025,-0.6004 z m -0.3132,-1.2532 c -0.1,-0.2499 -0.1743,-0.1757 -0.1893,0.1893 -0.014,0.3302 0.06,0.5153 0.1645,0.4112 0.1041,-0.1041 0.1153,-0.3743 0.025,-0.6005 z m 71.84318,30.3691 c 0,-0.2154 0.5298,-1.089 1.1754,-1.9414 0.8682,-1.1463 1.8263,-1.8987 3.6795,-2.8895 1.6656,-0.8905 2.4748,-1.5 2.4136,-1.818 -0.1176,-0.6112 0.8638,-0.6292 1.677,-0.031 0.6005,0.4419 0.6002,0.4504 -0.018,0.6722 -3.7955,1.361 -7.3622,3.6727 -7.3622,4.7718 0,0.5345 0.9727,0.4065 4.386,-0.5772 2.9287,-0.8441 8.1761,-1.1614 10.5224,-0.6363 1.9977,0.447 2.5839,0.9884 0.669,0.6178 -3.4638,-0.6703 -9.6947,-0.033 -13.9876,1.4301 -2.6235,0.8943 -3.157,0.9621 -3.1547,0.4013 z m -8.4603,-1.3355 c 0,-1.0348 4.2576,-6.5022 6.6612,-8.5538 2.3425,-1.9996 3.4143,-3.2338 3.2286,-3.7178 -0.5378,-1.4014 -12.0721,6.9602 -14.7093,10.6631 -0.4728,0.6639 -0.9347,1.132 -1.0265,1.0402 -0.092,-0.092 0.2524,-0.7759 0.7648,-1.5203 0.8226,-1.1951 1.8485,-2.2251 5.1794,-5.1996 0.7834,-0.6996 0.8589,-0.9302 0.6789,-2.0733 -0.2976,-1.8899 -0.8995,-4.0274 -2.1343,-7.5799 -1.7677,-5.0854 -1.9051,-6.1274 -1.9387,-14.6964 -0.025,-6.4272 -0.1296,-8.1974 -0.5822,-9.8685 -0.3033,-1.12 -0.6693,-3.2346 -0.8133,-4.6992 -0.1439,-1.4647 -0.4104,-3.0859 -0.5921,-3.6028 -0.8856,-2.5192 -0.9838,-5.5231 -0.3382,-10.3384 0.5946,-4.435 0.9041,-6.1641 1.5258,-8.525 0.1458,-0.5533 0.8564,-1.9425 1.5792,-3.087 1.5997,-2.5329 2.0555,-3.7714 2.3584,-6.409 0.1282,-1.1161 0.5534,-2.6641 0.9449,-3.4399 0.4576,-0.9068 0.7918,-2.3055 0.9357,-3.9161 0.1626,-1.8188 0.4742,-3.0053 1.1372,-4.3293 0.6959,-1.3897 1.0316,-2.7318 1.4106,-5.6391 0.6462,-4.9577 0.4646,-6.8304 -0.9521,-9.8135 -0.8819,-1.857 -1.125,-2.7542 -1.125,-4.1519 0,-1.5433 -0.2318,-2.2371 -1.7231,-5.1588 -1.2671,-2.4824 -1.7243,-3.7221 -1.7278,-4.6851 -0.01,-1.652 -0.4145,-2.3679 -1.1046,-1.936 -1.1931,0.7466 -3.849,7.0901 -4.2262,10.0936 -0.2806,2.2348 -0.8229,3.8476 -1.2937,3.8476 -0.364,0 -0.3288,-0.5449 0.085,-1.3184 0.1915,-0.3579 0.4656,-1.5861 0.6092,-2.7295 0.1436,-1.1433 0.6918,-3.3644 1.2182,-4.9357 0.5264,-1.5714 0.9572,-3.4105 0.9572,-4.0871 0,-0.6765 0.3524,-2.4075 0.7832,-3.8467 0.4308,-1.4392 0.7832,-3.3515 0.7832,-4.2495 0,-0.8981 0.3373,-2.8117 0.7495,-4.2525 0.4538,-1.5864 0.8345,-3.9789 0.965,-6.0658 0.1696,-2.709 0.3851,-3.8147 1.0076,-5.1692 0.7542,-1.641 1.4417,-6.4749 1.3718,-9.6454 -0.033,-1.5035 -2.2977,-5.7083 -4.1592,-7.7227 -0.5217,-0.5645 -0.7345,-1.1157 -0.4306,-1.1157 0.072,0 1.0057,0.9114 2.0754,2.0253 1.8394,1.9156 4.8893,4.1952 7.0898,5.2991 1.93,0.9683 5.327,1.9022 9.8145,2.6983 1.12,0.1987 2.7413,0.5594 3.6028,0.8015 3.2196,0.9048 8.2276,1.7053 10.6742,1.7062 3.4031,10e-4 5.06,-0.6029 6.8237,-2.4884 3.7533,-4.0126 3.074,-9.8967 -2.0132,-17.4376 -3.8717,-5.7392 -10.9376,-10.5574 -18.4076,-12.5519 -2.7158,-0.7252 -3.4188,-0.7915 -6.7889,-0.6404 -2.0677,0.093 -4.8873,0.407 -6.2657,0.6985 -2.4918,0.5268 -5.9246,0.4621 -6.9857,-0.1317 -0.8079,-0.4521 0.084,-0.6266 1.52,-0.2971 1.6168,0.371 4.5526,0.2099 5.0391,-0.2767 0.8344,-0.8344 -6.2191,-8.2476 -9.1591,-9.6262 -0.9644,-0.4522 -2.2283,-1.312 -2.8085,-1.9107 -0.6041,-0.6232 -1.5955,-1.2302 -2.3192,-1.4199 -0.6953,-0.1823 -1.7894,-0.6898 -2.4313,-1.1278 -1.0313,-0.7037 -1.5784,-0.815 -4.6993,-0.9563 -1.9427,-0.088 -3.8036,-0.3008 -4.1353,-0.473 -0.3318,-0.1722 -2.82998,-0.3527 -5.55178,-0.4011 -4.1674,-0.074 -5.3086,0.011 -7.229,0.5389 -1.2542,0.3448 -3.1262,0.6534 -4.16,0.6858 -1.3423,0.042 -2.5068,0.3411 -4.0727,1.046 -1.2062,0.5429 -2.9414,1.154 -3.8561,1.3579 -0.9147,0.204 -2.0425,0.688 -2.5063,1.0756 -0.4638,0.3877 -1.4776,1.0212 -2.253,1.408 -1.6766,0.8362 -3.3129,2.3153 -3.9873,3.6039 -0.2682,0.5126 -1.1539,1.531 -1.9682,2.2631 -0.8143,0.7322 -1.6644,1.7931 -1.8891,2.3576 -0.2248,0.5645 -1.1367,1.8023 -2.0265,2.7506 -0.9958,1.0615 -1.868,2.3862 -2.2688,3.4462 -0.358,0.947 -0.942,2.3562 -1.2976,3.1316 -1.2282,2.6779 -0.8082,4.967 1.5948,8.6916 1.2132,1.8804 1.2573,2.0388 1.1408,4.1001 -0.1093,1.935 -0.3776,2.6698 -2.751,7.5342 -2.4772,5.0773 -2.638,5.5316 -2.7711,7.8313 -0.1003,1.7328 0.014,2.9753 0.3935,4.2811 1.1534,3.9677 2.7379,6.0281 5.204,6.7669 1.1066,0.3316 1.345,0.3037 2.0763,-0.2423 0.4545,-0.3393 0.9782,-0.8918 1.1638,-1.2277 0.1856,-0.336 0.3699,-0.6668 0.4094,-0.735 0.04,-0.068 0.6974,0.4524 1.4618,1.157 1.7645,1.6265 4.5509,3.0374 6.9955,3.5424 1.5394,0.3179 2.2586,0.3162 3.7374,-0.01 4.4432,-0.9765 7.8505,-2.7999 9.5081,-5.0881 1.012,-1.3971 0.9364,-2.1414 -0.2177,-2.1414 -0.4807,0 -0.7266,-0.1489 -0.6465,-0.3916 0.082,-0.2492 0.861,-0.4161 2.1408,-0.4591 1.4813,-0.05 1.8271,0.01 1.3118,0.223 -0.4254,0.1765 -0.6319,0.4667 -0.527,0.7403 0.1959,0.5105 -0.034,0.7893 -4.0481,4.9 -1.5983,1.6369 -3.4788,3.8221 -4.1789,4.8559 -2.1346,3.1521 -4.7461,4.8559 -7.4429,4.8559 -1.3723,0 -3.1581,-0.4757 -3.8661,-1.0299 -0.6957,-0.5446 -0.1665,-0.6021 0.8244,-0.09 1.4151,0.7317 3.983,0.6224 5.8549,-0.2493 1.6286,-0.7583 4.9855,-4.3033 4.7508,-5.0171 -0.3101,-0.9434 -4.6604,-0.4561 -7.2019,0.8069 l -1.1835,0.5881 0.1904,-0.7585 c 0.1689,-0.673 0.028,-0.8207 -1.2537,-1.3101 -1.1519,-0.4399 -1.6019,-0.4795 -2.2243,-0.1959 -1.0165,0.4631 -1.4932,1.7534 -1.2686,3.4339 0.2178,1.6296 -0.3168,1.5018 -0.6267,-0.1499 -0.1382,-0.7367 -0.025,-1.7235 0.3256,-2.8353 0.5113,-1.6219 0.5104,-1.7353 -0.018,-2.319 -1.4407,-1.5919 -2.8957,0.4158 -3.1667,4.3695 -0.1816,2.6493 0.2628,4.0092 1.8784,5.7479 1.5964,1.7181 3.2324,2.2962 6.4941,2.2951 2.7688,-10e-4 3.1182,-0.075 5.0126,-1.059 1.12,-0.5818 2.6287,-1.4642 3.3527,-1.9607 1.3636,-0.9353 3.4095,-1.8955 5.5759,-2.6171 1.3041,-0.4343 4.4695,-0.8596 10.3384,-1.3889 1.8954,-0.1709 4.27718,-0.5309 5.29298,-0.8 2.1735,-0.5758 6.5,-2.4328 7.7622,-3.3315 0.4873,-0.347 0.8858,-0.5156 0.8854,-0.3746 0,0.3589 -2.6578,2.1254 -4.6061,3.0625 -1.5199,0.7311 -4.7969,1.4777 -10.43098,2.3765 -3.0074,0.4798 -7.402,1.935 -10.1034,3.3458 -3.1306,1.6349 -4.514,2.9583 -8.9187,8.5325 -0.3396,0.4298 -0.3827,0.4239 -0.3916,-0.053 0,-0.2948 0.6408,-1.335 1.4362,-2.3115 1.4829,-1.8207 2.2793,-3.7341 1.7672,-4.2462 -0.1685,-0.1684 -1.0345,0.057 -2.1398,0.5563 -1.5454,0.6985 -2.3296,0.8442 -4.6763,0.8688 -2.3627,0.025 -3.034,-0.085 -4.1424,-0.6773 -4.1523,-2.2188 -5.8756,-5.9309 -4.7622,-10.2582 0.5608,-2.1796 0.5538,-2.2022 -0.6507,-2.0987 -1.8771,0.1614 -3.0107,-0.2211 -4.4748,-1.5098 -1.0436,-0.9186 -1.9334,-1.3688 -3.4033,-1.7221 -1.0947,-0.263 -2.794,-0.7069 -3.7763,-0.9865 -1.3637,-0.3882 -2.2523,-0.4467 -3.7594,-0.2475 -1.0854,0.1434 -3.8104,0.2245 -6.0554,0.1801 -3.4459,-0.068 -4.349,0.017 -5.7958,0.5491 -0.9426,0.3463 -2.9122,0.7278 -4.3768,0.8477 -3.4335,0.2811 -4.8627,0.723 -7.2844,2.2524 -1.0857,0.6858 -2.5896,1.3508 -3.3418,1.4779 -1.8116,0.3061 -5.1094,2.0511 -6.7716,3.5833 -0.7354,0.6778 -1.8797,1.5121 -2.543,1.8539 -2.021,1.0415 -3.8762,2.8676 -4.7166,4.6425 -0.4374,0.9237 -1.5513,2.5269 -2.4755,3.5626 -1.8679,2.0934 -2.4463,3.0694 -2.7789,4.6892 -0.1238,0.6031 -0.719,2.2033 -1.3226,3.556 -1.8437,4.1315 -1.7379,8.9273 0.2361,10.7138 0.8253,0.7469 1.1343,0.3793 1.388,-1.6509 0.5128,-4.1047 2.0975,-9.7993 2.7268,-9.7993 0.1777,0 0.2268,0.245 0.1098,0.5482 -1.5183,3.935 -2.4832,10.9473 -2.2741,16.5258 0.1724,4.6008 0.6098,7.1223 1.9562,11.2783 0.4786,1.4772 0.8856,3.6125 0.9912,5.2006 0.2701,4.0588 -0.2614,5.3495 -3.6281,8.8111 -3.4292,3.526 -4.7748,5.5349 -5.8304,8.7045 -0.7144,2.1453 -0.8484,3.1 -0.8699,6.2006 -0.014,2.0157 0.1424,5.2156 0.3475,7.111 0.4495,4.1535 0.8829,9.9161 1.1368,15.1149 l 0.1874,3.8366 -1.5868,-0.6254 c -0.8727,-0.344 -1.8635,-0.6255 -2.2018,-0.6255 -0.4179,0 -0.6149,-0.213 -0.6149,-0.6649 0,-0.5466 0.081,-0.5976 0.4562,-0.2863 1.0018,0.8315 1.2008,0.054 0.9902,-3.8707 -0.3903,-7.2711 -0.5929,-9.5728 -0.8297,-9.4265 -0.6772,0.4185 -0.7083,-14.0891 -0.031,-14.5691 0.1251,-0.089 0.4161,-1.1482 0.6466,-2.3544 0.6695,-3.5037 2.6024,-6.7497 5.9697,-10.0251 3.582,-3.4842 4.073,-5.6038 2.5464,-10.9932 -1.4093,-4.9755 -2.5426,-10.5794 -2.5426,-12.5726 0,-1.4904 -0.1353,-1.8816 -0.9851,-2.8495 -1.5815,-1.8013 -2.2466,-3.6479 -2.3903,-6.6363 -0.267,-5.5541 1.6956,-11.3121 6.1479,-18.0369 1.9653,-2.9685 6.3747,-7.4624 8.458,-8.6201 0.6293,-0.3498 1.9196,-1.1829 2.8673,-1.8514 2.0538,-1.4487 8.3931,-4.679 11.3541,-5.7856 2.5754,-0.9624 8.659,-2.2213 13.0906,-2.7088 2.7585,-0.3034 10.9999,-0.2408 15.1917,0.1237 0.7729,0.067 0.7858,0.029 0.9813,-2.9081 0.2037,-3.0611 0.476,-4.3953 1.5751,-7.716 0.576,-1.7405 1.0981,-2.375 0.371,-6.1091 l -0.2645,-4.1888 -5.1588,-0.3658 c -10.2224,-0.7249 -17.8921,-3.2422 -21.0657,-6.3641 -1.2985,-1.2774 -2.2902,-3.3537 -2.2902,-4.795 0,-3.6505 4.2143,-8.6227 10.0966,-11.9123 5.7901,-3.238 18.4289,-5.9326 25.3816,-5.4115 l 2.7399,0.2054 1.6461,-1.2312 c 3.3538,-2.5083 11.1959,-5.8734 16.3705,-7.0246 5.9147,-1.3159 8.7933,-1.5797 15.1424,-1.3878 3.38848,0.1024 6.93638,0.3471 7.88408,0.5437 4.3957,0.9123 10.7936,3.7254 14.4581,6.3573 2.0088,1.4427 6.3747,5.7233 7.872,7.7183 l 0.8121,1.082 4.2448,-0.091 c 6.8496,-0.1463 11.0726,1.0658 17.4771,5.0164 5.2122,3.215 9.1128,7.253 11.7633,12.1773 3.0333,5.6356 3.8894,10.3302 2.5938,14.2236 -1.0411,3.1284 -2.2262,4.5053 -5.14,5.9714 l -2.4669,1.2413 -4.2688,-0.027 c -3.71,-0.023 -5.089,-0.1952 -10.5345,-1.3144 -3.4461,-0.7083 -7.8165,-1.7209 -9.7118,-2.2502 -4.0793,-1.1393 -5.7204,-1.3768 -5.7204,-1.1264 0,0.1021 -0.5568,3.2549 -1.2373,7.0061 -3.1275,17.2407 -3.0503,19.4436 1.0733,30.6302 3.4808,9.443 4.1938,14.1234 3.1497,20.6769 -1.6897,10.6054 -2.7071,14.6538 -5.1567,20.5202 -3.1925,7.6455 -4.3922,10.745 -4.4184,18.4838 -0.016,4.6805 0.6621,6.2157 1.4181,10.4951 0.7609,4.3074 1.4416,5.8951 1.4719,11.2864 0.034,6.0122 0.065,6.316 0.7544,7.2839 1.3785,1.9358 1.7176,1.3113 2.1312,-3.9243 0.1123,-1.4215 0.3178,-2.5846 0.4566,-2.5846 0.3668,0 0.8769,1.9852 1.2477,4.856 0.3584,2.7743 0.6293,3.289 1.3964,2.6523 0.338,-0.2805 0.2153,0.1768 -0.3653,1.3605 -0.4809,0.9806 -0.986,1.783 -1.1224,1.783 -0.1365,0 -0.2481,-0.9962 -0.2481,-2.2136 0,-2.1772 -0.4013,-3.6018 -0.9236,-3.2789 -0.1461,0.09 -0.3648,1.1515 -0.486,2.3584 -0.1514,1.5074 -0.3509,2.1942 -0.6374,2.1942 -0.2294,0 -0.5065,-0.282 -0.6159,-0.6266 -0.1869,-0.589 -1.0965,-0.9086 -1.0965,-0.3853 0,0.223 0.8341,3.442 1.561,6.0245 1.3222,4.6971 1.9905,6.639 2.3296,6.7692 0.2171,0.083 1.4394,-0.4094 2.7164,-1.0949 3.0524,-1.6387 5.6415,-2.6364 5.9753,-2.3026 0.2712,0.2711 -1.1821,1.8739 -5.3227,5.8702 -1.7927,1.7303 -2.253,2.3582 -2.1813,2.9762 0.1113,0.9589 0.6254,0.9596 3.2231,0 2.0794,-0.7647 6.2173,-1.2172 6.5284,-0.7139 0.12,0.1941 -0.4411,0.3197 -1.4697,0.3289 -0.915,0.01 -2.2864,0.173 -3.0476,0.3662 -2.0934,0.5313 -6.2024,2.4728 -7.9629,3.7625 -1.9403,1.4214 -2.3496,1.6683 -2.3496,1.4171 z m -65.37798,-158.2157 c 0.7083,-1.4853 0.6657,-2.1439 -0.204,-3.1549 -1.0833,-1.2595 -1.4611,-0.7602 -1.4611,1.9309 0,2.043 0.07,2.3311 0.5686,2.3311 0.3423,0 0.7786,-0.4404 1.0965,-1.1071 z m -1.3518,-1.2425 c 0,-2.1372 0.1936,-2.4075 1.0479,-1.4634 0.6445,0.7121 0.6551,1.387 0.041,2.5755 -0.748,1.4465 -1.0884,1.0987 -1.0884,-1.1121 z m 0.8437,-0.6989 c -0.079,-0.3048 -0.1497,-0.1313 -0.156,0.3856 -0.01,0.5169 0.059,0.7663 0.1444,0.5542 0.086,-0.2121 0.091,-0.635 0.012,-0.9398 z m 1.6512,-1.4804 c 0.4305,-0.5187 0.1862,-1.1102 -0.4585,-1.1102 -0.5638,0 -0.8847,0.537 -0.6642,1.1115 0.2225,0.5799 0.6407,0.5795 1.1227,-9e-4 z m -3.9047,-4.8559 0.9399,-0.3757 -0.7049,-0.5741 c -0.3877,-0.3158 -0.7049,-0.6475 -0.7049,-0.7371 0,-0.09 0.3172,-0.208 0.7049,-0.2631 0.7588,-0.1077 0.7467,0.012 0.3523,-3.4659 -0.1523,-1.3432 -0.066,-2.1598 0.339,-3.2211 0.2986,-0.7819 0.4635,-1.6287 0.3664,-1.8817 -0.2476,-0.6452 -1.5675,-0.5723 -3.0157,0.1666 -1.639,0.8361 -2.3351,0.7898 -3.0585,-0.2033 l -0.6045,-0.8298 -2.231,0.8753 c -2.0009,0.785 -2.4941,0.8572 -4.783,0.7004 -3.404,-0.2334 -3.7402,-0.7057 -0.5119,-0.7193 2.716,-0.011 6.4013,-1.036 8.6272,-2.3984 1.4608,-0.8941 2.0273,-0.3203 1.0237,1.0371 -0.9927,1.3427 -0.4898,1.716 1.2491,0.9271 0.762,-0.3457 1.9645,-0.6316 2.6723,-0.6354 1.2322,-0.01 1.3361,-0.087 2.4426,-1.8792 0.6356,-1.0298 1.3359,-1.9814 1.5561,-2.1147 0.2203,-0.1333 1.0458,-1.2476 1.8346,-2.4763 0.7888,-1.2287 1.5889,-2.3297 1.7779,-2.4465 0.1891,-0.1168 0.3438,-0.472 0.3438,-0.7893 0,-1.4271 -6.232,-1.7829 -11.7482,-0.6709 -11.2724,2.2725 -16.3068,4.3622 -20.3451,8.4446 -3.4544,3.4922 -3.901,4.7745 -2.4971,7.1702 0.9159,1.5628 3.5581,3.4375 6.2806,4.4561 2.5572,0.9568 7.1569,1.7742 13.1154,2.3308 2.1027,0.1964 5.5855,-0.029 6.579,-0.4264 z m -6.579,0.1131 c -8.8438,-0.8261 -13.3253,-1.9251 -16.3658,-4.0132 -1.8754,-1.288 -3.5278,-3.4123 -3.5278,-4.5353 0,-1.182 1.4408,-3.3147 3.6343,-5.3797 3.8863,-3.6585 8.9455,-5.6736 19.7055,-7.8488 3.7683,-0.7618 7.9484,-0.8872 10.1034,-0.3032 1.4772,0.4003 1.6598,0.8824 0.6724,1.7759 -0.3624,0.328 -1.0243,1.231 -1.4708,2.0065 -0.4465,0.7756 -1.4087,2.084 -2.1383,2.9075 -0.7296,0.8236 -1.512,1.9161 -1.7385,2.428 -0.3508,0.7924 -0.5858,0.9306 -1.5823,0.9306 -0.6437,0 -1.7429,0.2291 -2.4428,0.5092 -1.4437,0.5776 -1.9067,0.3934 -1.1401,-0.4536 1.2547,-1.3864 0.2171,-2.3729 -1.457,-1.3851 -3.2352,1.9088 -8.1911,2.8568 -11.2629,2.1544 -0.981,-0.2243 -1.1489,-0.1918 -1.001,0.1936 0.2967,0.7731 1.7375,1.2357 4.377,1.4055 2.204,0.1417 2.7617,0.061 4.5672,-0.6614 2.3947,-0.958 2.4773,-0.9701 2.4773,-0.3638 0,0.5249 0.9392,1.1075 1.7855,1.1075 0.3154,0 1.0995,-0.2819 1.7425,-0.6266 1.3583,-0.728 2.7377,-0.8262 2.7377,-0.1949 0,0.2375 -0.2259,0.9725 -0.5021,1.6335 -0.5018,1.2009 -0.4829,4.0518 0.038,5.6887 0.1829,0.5752 0.1056,0.7049 -0.4205,0.7049 -0.8391,0 -1.1508,0.5311 -0.6591,1.1235 0.2843,0.3426 0.2961,0.563 0.044,0.8155 -0.3598,0.3597 -3.9984,0.5842 -6.1752,0.3808 z m 5.2252,-1.6033 c -0.085,-0.8495 0.02,-1.037 0.6754,-1.2014 0.7047,-0.1769 0.75,-0.2859 0.4923,-1.1844 -0.4234,-1.4761 -0.3436,-3.5336 0.1861,-4.8014 0.2585,-0.6186 0.47,-1.178 0.47,-1.2431 0,-0.2932 -0.9098,-0.066 -2.0364,0.5082 -0.6759,0.3446 -1.4904,0.6266 -1.8099,0.6266 -0.7262,0 -1.8724,-0.5878 -2.1891,-1.1226 -0.1882,-0.3179 -0.5573,-0.2578 -1.723,0.2807 -2.0919,0.9662 -6.9141,0.9908 -8.5325,0.043 -0.7718,-0.4518 -1.127,-0.9041 -1.1994,-1.5273 -0.099,-0.8483 -0.059,-0.8768 0.9399,-0.681 3.9068,0.7655 6.9911,0.2864 10.9177,-1.6957 1.0204,-0.5151 2.0659,-0.9366 2.3232,-0.9366 0.5649,0 1.1773,1.0515 1.051,1.8049 -0.058,0.3488 0.078,0.5065 0.3787,0.4384 0.2585,-0.058 0.9813,-0.1994 1.6063,-0.3133 0.8822,-0.1606 1.401,-0.5573 2.32,-1.7734 0.651,-0.8615 1.4574,-1.8484 1.792,-2.193 0.3346,-0.3446 1.0529,-1.3211 1.5961,-2.17 0.5432,-0.849 1.1237,-1.7233 1.2899,-1.943 0.4591,-0.6069 0.1044,-0.7702 -2.3403,-1.0771 -4.7658,-0.5985 -16.6242,2.0144 -22.5362,4.9656 -4.3484,2.1706 -8.164,5.9841 -8.164,8.1593 0,2.4535 4.6911,5.8377 9.2419,6.6673 4.9839,0.9085 10.0305,1.4474 13.158,1.4051 l 2.193,-0.03 -0.1007,-1.0065 z m 21.8443,166.4278 c -1.1518,-0.9156 -1.4356,-1.0226 -1.7156,-0.6469 -0.2704,0.3626 -0.5235,0.1336 -1.3019,-1.1778 -0.5315,-0.8954 -1.0696,-1.9805 -1.1958,-2.4112 -0.1864,-0.6363 0.058,-0.4882 1.3019,0.7895 0.8422,0.865 2.2228,2.1708 3.0679,2.9017 1.8815,1.6274 1.7559,2.0649 -0.1565,0.5447 z m 58.30198,-18.2555 c 0,-0.2407 2.7978,-2.5428 4.6198,-3.8028 1.0185,-0.7044 1.3641,-1.5929 0.6265,-1.6109 -1.0551,-0.026 3.3506,-1.5568 4.4796,-1.5568 0.6043,0 0.2724,0.5374 -0.5635,0.9126 -1.5671,0.7034 -4.4588,2.6838 -4.4616,3.0556 0,0.2011 0.1735,0.4259 0.3889,0.4996 0.2154,0.074 -0.8,0.7199 -2.2563,1.4359 -2.9048,1.4281 -2.8351,1.4019 -2.8334,1.0668 z m -126.80198,-3.6018 -0.7035,-1.0063 0.6502,-0.2406 c 0.5344,-0.1977 0.618,-0.422 0.4694,-1.2595 l -0.1808,-1.019 0.4202,1.0965 c 0.2311,0.6031 0.5038,1.6252 0.606,2.2713 0.2343,1.4818 -0.2901,1.5474 -1.2615,0.1576 z m 134.63288,0.077 c 0.6135,-0.3965 1.0283,-0.3965 0.7832,0 -0.1064,0.1723 -0.432,0.3112 -0.7233,0.3085 -0.4566,0 -0.4649,-0.047 -0.06,-0.3085 z m -5.7958,-0.9398 c 0.1065,-0.1723 0.4321,-0.3111 0.7234,-0.3085 0.4566,0 0.4648,0.047 0.06,0.3085 -0.6135,0.3965 -1.0282,0.3965 -0.7832,0 z m 10.1818,-0.2986 c 1.8603,-0.651 2.9562,-0.8025 2.69,-0.3717 -0.092,0.1482 -0.7696,0.3577 -1.5066,0.4656 -0.737,0.1079 -1.6925,0.2666 -2.1232,0.3526 -0.4308,0.086 -0.01,-0.1149 0.9398,-0.4465 z m -80.82758,-0.2886 c 0,-0.6564 1.0312,-3.1047 1.8583,-4.412 0.4952,-0.7827 1.1586,-2.1633 1.4743,-3.0679 0.3156,-0.9046 0.7298,-1.6448 0.9204,-1.6448 0.3198,0 2.326,3.7272 2.326,4.3214 0,0.144 -0.478,0.4898 -1.0621,0.7683 -0.5841,0.2786 -1.9766,1.362 -3.0944,2.4077 -2.0127,1.8828 -2.4225,2.158 -2.4225,1.6273 z m 4.386,-3.961 c 0.7754,-0.5012 1.4545,-0.9377 1.5092,-0.9699 0.055,-0.032 -0.2788,-0.8049 -0.7409,-1.7168 l -0.8402,-1.6581 -0.7252,1.7825 c -0.3988,0.9804 -1.0136,2.1875 -1.366,2.6825 -0.3525,0.495 -0.7945,1.3061 -0.9823,1.8025 l -0.3415,0.9024 1.0386,-0.957 c 0.5712,-0.5263 1.6729,-1.367 2.4483,-1.8681 z m -69.1994,2.0712 c -0.3665,-0.2322 -0.3622,-0.3758 0.028,-0.9331 0.5311,-0.7582 0.8751,-0.5671 0.8751,0.4861 0,0.7808 -0.2112,0.8853 -0.9032,0.447 z m 9.2228,-1.0054 c -0.7373,-0.8762 -0.7696,-1.0139 -0.3162,-1.3456 0.4614,-0.3373 0.4487,-0.5373 -0.1463,-2.3034 -0.7063,-2.0967 -0.8018,-2.7103 -0.3813,-2.4504 0.1487,0.092 0.4456,0.8404 0.6599,1.6632 0.2142,0.823 0.6565,2.3074 0.9828,3.2989 0.3263,0.9914 0.5933,1.8725 0.5933,1.958 0,0.437 -0.6625,0.046 -1.3922,-0.8207 z m -9.3774,-1.3857 c -0.3023,-0.7878 -0.2132,-0.991 0.1562,-0.356 0.1828,0.3145 0.2664,0.6378 0.1858,0.7184 -0.081,0.081 -0.2346,-0.082 -0.342,-0.3624 z m 5.7554,-0.461 c -0.2754,-0.5144 -0.2359,-0.6225 0.2256,-0.6185 1.0148,0.01 1.3779,0.4489 0.7127,0.8643 -0.509,0.3179 -0.6575,0.279 -0.9383,-0.2458 z m 30.7036,0.1431 c 0,-0.095 2.1147,-2.2822 4.6993,-4.8597 2.5846,-2.5775 4.6993,-4.9005 4.6993,-5.1623 0,-1.1178 -2.042,-0.808 -5.7215,0.8681 -1.1652,0.5308 -2.2109,0.8728 -2.3236,0.7601 -0.1127,-0.1128 0.2415,-0.7606 0.7872,-1.4397 1.5125,-1.882 1.3042,-2.4346 -0.8451,-2.2425 -0.4075,0.036 -1.7467,0.6814 -2.9762,1.4332 -1.2295,0.7518 -2.3327,1.2726 -2.4515,1.1574 -0.2064,-0.2002 -1.1651,-7.2083 -1.8483,-13.5107 -0.3469,-3.2001 -0.9875,-7.6557 -1.5192,-9.0541 -0.1829,-0.481 -0.3325,-0.9949 -0.3325,-1.1419 0,-0.5569 2.1141,-1.5128 4.083,-1.8462 3.475,-0.5885 9.4155,1.8648 12.8546,4.0257 2.9854,1.8758 2.8167,1.612 3.4497,5.3959 0.6325,3.7807 1.9298,8.7826 3.5607,13.7286 1.6326,4.9511 2.7047,8.9505 2.4917,9.2952 -0.111,0.1796 -0.6892,-0.1549 -1.3346,-0.7721 -1.5558,-1.4876 -6.3231,-4.9203 -6.8334,-4.9203 -0.2279,0 -0.4144,0.1955 -0.4144,0.4345 0,0.6935 2.0349,3.4903 2.4705,3.3955 0.2176,-0.047 0.3123,0.049 0.2106,0.2133 -0.1018,0.1647 -0.042,0.388 0.1333,0.4962 0.1751,0.1082 0.3184,0.4058 0.3184,0.6613 0,0.3875 -0.3839,0.4297 -2.3174,0.2545 -2.675,-0.2424 -5.6556,0.4906 -8.4828,2.0862 -1.5427,0.8706 -2.3578,1.1278 -2.3578,0.7438 z m 6.2204,-2.975 c 1.7269,-0.5187 2.7707,-0.6498 4.1658,-0.5233 1.9796,0.1795 2,0.1387 0.6468,-1.294 -0.5801,-0.6141 -1.6344,-2.7583 -1.6344,-3.3239 0,-0.7349 -0.2175,-0.6056 -1.6525,0.9823 -1.9427,2.1496 -4.3556,4.5032 -5.1615,5.0347 -1.0962,0.7231 -0.829,1.0704 0.3133,0.4073 0.56,-0.3251 2.0551,-0.9025 3.3225,-1.2831 z m 11.1369,-2.8154 c -0.2589,-0.9414 -1.0835,-3.6854 -1.8326,-6.0977 -2.0604,-6.6348 -2.9503,-10.0362 -3.4837,-13.3146 -0.6517,-4.0057 -0.6082,-3.9079 -2.0229,-4.5458 -0.6853,-0.3091 -1.2461,-0.6554 -1.2461,-0.7696 0,-0.6312 -4.0084,-3.1205 -7.6521,-3.7502 -3.1432,-0.5432 -6.3838,-0.2342 -7.6629,0.7306 -0.6126,0.4621 -0.654,0.6355 -0.3451,1.4477 0.4552,1.1974 1.1516,6.0315 1.5471,9.3936 0.7032,5.9767 1.5401,12.281 1.6441,12.385 0.061,0.061 1.069,-0.4451 2.2402,-1.1245 2.0455,-1.1867 3.508,-1.5105 4.7206,-1.0452 0.7218,0.2769 0.6071,1.685 -0.2093,2.5694 l -0.7049,0.7635 1.2531,-0.6305 c 1.2808,-0.6444 4.3441,-1.6394 5.0471,-1.6394 0.7331,0 1.4291,0.9961 1.2353,1.7681 -0.1494,0.5953 -0.061,0.7381 0.4561,0.7381 0.5572,0 5.6011,3.3521 6.8708,4.5662 0.2482,0.2373 0.4883,0.3945 0.5335,0.3492 0.045,-0.045 -0.1295,-0.8525 -0.3883,-1.7939 z m -2.8578,4.7407 c -1.2311,-0.7748 -1.2801,-0.8575 -0.7171,-1.2091 0.5273,-0.3293 0.7114,-0.2372 1.4435,0.7226 0.4615,0.6051 0.7842,1.1492 0.717,1.2092 -0.067,0.06 -0.7166,-0.2652 -1.4434,-0.7227 z m -52.5153,-1.7696 c -0.6236,-1.1744 -1.0627,-2.2064 -0.9758,-2.2933 0.1972,-0.1972 3.2771,3.055 3.2771,3.4604 0,0.1629 -0.1323,0.2144 -0.294,0.1144 -0.1618,-0.1 -0.4244,0.051 -0.5838,0.336 -0.2336,0.4175 -0.5091,0.1045 -1.4235,-1.6175 z m 64.174,-0.062 c -0.1025,-0.6462 -0.5554,-2.6551 -1.0065,-4.4643 -1.3609,-5.4579 -1.811,-5.3494 -2.347,0.5658 -0.2061,2.2734 -0.4647,4.1334 -0.5748,4.1334 -0.1101,0 -0.3725,-0.8106 -0.5831,-1.8014 -0.2106,-0.9907 -1.0785,-4.1275 -1.9285,-6.9706 -3.154,-10.5482 -4.1516,-14.7312 -3.6361,-15.2467 0.4879,-0.4879 9.2138,2.2935 9.629,3.0693 0.1546,0.2889 0.7741,2.4652 1.3765,4.8363 0.7946,3.1271 1.6102,5.376 2.9699,8.1887 l 1.8745,3.8776 -0.6934,0.5337 c -0.3813,0.2936 -1.5558,1.4156 -2.6099,2.4934 -1.0541,1.0778 -1.9993,1.9596 -2.1005,1.9596 -0.1012,0 -0.2677,-0.5287 -0.3701,-1.1748 z m 4.4013,-3.4059 0.7156,-0.4689 -1.841,-3.8192 c -1.3243,-2.7476 -2.155,-5.0499 -2.9603,-8.205 -0.6158,-2.4122 -1.2908,-4.5529 -1.5002,-4.7573 -0.3172,-0.3095 -7.5099,-2.6052 -8.1627,-2.6052 -0.5141,0 -0.3074,1.0647 1.7033,8.772 0.2023,0.7754 0.6943,2.3967 1.0934,3.6028 0.399,1.2061 1.1114,3.4618 1.5831,5.0126 l 0.8575,2.8195 0.2596,-2.5062 c 0.1427,-1.3785 0.3232,-2.6826 0.401,-2.8979 0.2473,-0.685 1.7109,-0.4609 2.0465,0.3132 0.3715,0.8571 1.1901,4.119 1.6588,6.6101 l 0.3447,1.8324 1.5426,-1.617 c 0.8484,-0.8894 1.8645,-1.828 2.2581,-2.0859 z m -76.0401,1.0948 c -0.056,-1.4428 -0.032,-3.751 0.054,-5.1295 0.1447,-2.3145 0.176,-2.1372 0.4095,2.3162 0.1613,3.0789 0.1417,4.9334 -0.054,5.1294 -0.2005,0.2005 -0.3426,-0.6033 -0.4095,-2.3161 z m 16.8537,-0.129 c -0.3023,-0.7878 -0.2131,-0.9911 0.1562,-0.356 0.1829,0.3145 0.2665,0.6377 0.1858,0.7184 -0.081,0.081 -0.2345,-0.082 -0.342,-0.3624 z m 39.4723,-1.4194 c -0.7817,-1.3233 -0.4294,-1.4856 0.9466,-0.436 1.0387,0.7922 1.0958,0.9069 0.5568,1.1181 -0.8963,0.3513 -0.8917,0.3534 -1.5034,-0.6821 z m -38.8593,-1.7895 -0.6014,-0.8517 0.8364,0.7595 c 0.8789,0.7981 0.9872,0.9699 0.6014,0.9537 -0.1292,-0.01 -0.5056,-0.3931 -0.8364,-0.8615 z m -3.2587,-1.834 c -0.9063,-1.3878 -0.7011,-1.6464 0.5816,-0.733 0.5427,0.3865 0.8539,0.7895 0.6915,0.8957 -0.1623,0.1062 -0.3516,0.3636 -0.4205,0.572 -0.069,0.2085 -0.4526,-0.1221 -0.8526,-0.7347 z m 62.4551,-87.9216 c -1.4208,-0.8047 -1.9346,-2.0324 -1.5991,-3.8207 0.2764,-1.4733 1.3692,-1.9624 2.986,-1.3364 0.9327,0.3611 1.0945,0.5629 1.0186,1.2705 -0.1019,0.9506 0.257,1.0543 1.295,0.3742 1.8865,-1.2361 6.784,-1.9305 6.784,-0.9618 0,0.8088 -2.518,3.4448 -4.133,4.3267 -2.0543,1.1218 -4.5298,1.1793 -6.3515,0.1475 z m 5.7169,-0.3908 c 0.6407,-0.2631 1.8427,-1.2147 2.6713,-2.1147 l 1.5066,-1.6364 -1.0172,-0.1025 c -1.2593,-0.127 -3.5434,0.4649 -4.8891,1.2669 -1.3366,0.7966 -2.276,0.5116 -2.276,-0.6907 0,-0.7495 -0.1607,-0.9291 -0.9953,-1.1124 -0.7689,-0.1689 -1.0895,-0.09 -1.4098,0.3483 -0.4356,0.5957 -0.5265,1.7208 -0.2288,2.8299 0.4023,1.4989 4.2352,2.1985 6.6383,1.2116 z m 44.64198,-35.3146 c -0.6124,-0.7917 -0.8213,-1.2782 -0.4505,-1.0491 0.3709,0.2293 1.1131,1.4407 0.8826,1.4407 -0.071,0 -0.2656,-0.1762 -0.4321,-0.3916 z"
         id="path2996"
         style="fill:#3A2E1D;fill-opacity:1;stroke:#3A2E1D;stroke-width:0.27557877;stroke-opacity:1" />
      <path
         d="m -2044.5488,543.2453 a 537.40112,537.40112 0 1 1 -1074.8023,0 537.40112,537.40112 0 1 1 1074.8023,0 z"
         transform="matrix(0.24739897,0,0,0.24739897,1622.2286,1158.1822)"
         id="path3805"
         style="fill:none;stroke:#3A2E1D;stroke-width:21.7979908;stroke-miterlimit:4;stroke-opacity:1;stroke-dasharray:none;stroke-dashoffset:0" />
    </g>
  </g>
</svg>
